<svg style="" width="34.119141" height="23.625000" version="1.1" xmlns="http://www.w3.org/2000/svg">
<path d="M10.160957 18.562500 C8.754700 18.562500 7.559399 18.070317 6.575019 17.085938 C5.590639 16.101558 5.098457 14.906257 5.098457 13.500000 L5.098457 1.265625 C5.098457 0.914061 5.221502 0.615236 5.467597 0.369141 C5.713692 0.123046 6.012517 -0.000000 6.364082 -0.000000 L27.035957 -0.000000 C28.899247 -0.000000 30.490052 0.659173 31.808418 1.977539 C33.126784 3.295905 33.785957 4.886709 33.785957 6.750000 C33.785957 8.613291 33.126784 10.204095 31.808418 11.522461 C30.490052 12.840827 28.899247 13.500000 27.035957 13.500000 L25.348457 13.500000 C25.348457 14.906257 24.856274 16.101558 23.871894 17.085938 C22.887514 18.070317 21.692214 18.562500 20.285957 18.562500 Z M27.035957 3.375000 L25.348457 3.375000 L25.348457 10.125000 L27.035957 10.125000 C27.950024 10.125000 28.741031 9.791019 29.409003 9.123047 C30.076976 8.455075 30.410957 7.664067 30.410957 6.750000 C30.410957 5.835933 30.076976 5.044925 29.409003 4.376953 C28.741031 3.708981 27.950024 3.375000 27.035957 3.375000 Z M29.567207 23.625000 L2.567207 23.625000 C1.407045 23.625000 0.616037 23.062506 0.194160 21.937500 C-0.122248 21.093746 -0.051936 20.548829 0.405097 20.302734 C0.475410 20.267578 0.563300 20.250000 0.668769 20.250000 L31.465644 20.250000 C31.992990 20.250000 32.186348 20.654293 32.045722 21.462891 C31.869940 22.482427 31.325024 23.150389 30.410957 23.466797 C30.129705 23.572266 29.848458 23.625000 29.567207 23.625000 Z M33.733222 21.937500" style="fill:black"/>
</svg>