<svg xmlns="http://www.w3.org/2000/svg" viewBox="0 0 162.2 73.4"><g data-name="Layer 2"><path d="M35.8 33.3c-.9 0-1.8 0-2.9-.1-10.6-1-22.7-7-23.3-13.8a1.37 1.37 0 0 1 1.3-1.5 1.31 1.31 0 0 1 1.4 1.4c.5 4.9 11.8 10.3 20.8 11.2a23.48 23.48 0 0 0 2.6.1c3.1 0 7-.6 7.9-3.5 2.8-9.7-7.4-22.7-9.1-24.3-.1 0-.1-.1-.1-.2a1.38 1.38 0 0 1 .3-1.9 1.61 1.61 0 0 1 .9-.3 1.38 1.38 0 0 1 1.1.6c2.2 2.6 12.9 15.9 9.6 26.9-1 3.5-4.7 5.4-10.5 5.4zM56 32.8a6.11 6.11 0 0 1-5-2.6c-1.9-2.5-1.5-6.1 1-9.4 3-4 6.2-6 9.7-6h.3c5.7.2 9.2 5.8 9.2 5.8a1.1 1.1 0 0 1 .1 1 1.46 1.46 0 0 1-.6.9 1.08 1.08 0 0 1-.8.2 1.25 1.25 0 0 1-1.1-.6l-.2-.2c-2.2-2.7-4.5-4.2-6.9-4.3h-.2c-2.5 0-5.2 1.7-7.6 4.9-1.7 2.2-2.1 4.5-1 6.1a3.24 3.24 0 0 0 2.8 1.4 3.4 3.4 0 0 0 1-.1c3.2-.9 6.7-6.6 7-7.4v-.1a1.27 1.27 0 0 1 1.3-.7 1.35 1.35 0 0 1 1.2.8c0 .1.1.1.1.2.2.7 1.9 5.6 4.2 6.4a1.27 1.27 0 0 0 .6.1 1.67 1.67 0 0 0 1.1-.4c3-1.7 4.9-5.4 5.7-8.4-.1 0-.1-.1-.2-.1-1.3-.8-2.6-1.7-3-2.9a4.71 4.71 0 0 1 .6-4 3.78 3.78 0 0 1 2.7-1 1.48 1.48 0 0 1 .7.1c1.1.4 2.3 1.3 2.5 3.9a11.33 11.33 0 0 1-.1 2.6c.5.2 1.1.4 1.6.6a9.6 9.6 0 0 0 3.3.6 7.5 7.5 0 0 0 3.1-.6 1.09 1.09 0 0 1 .5-.1 1.55 1.55 0 0 1 .8.2A1.34 1.34 0 0 1 91 21v.1c-.4 2.2-.6 6.4.4 7.8a1.27 1.27 0 0 0 .6.4h.2a17.17 17.17 0 0 0 5.6-2c-2.6-2.9-3.2-6.5-1.3-8.5 2.2-2.3 4.4-3.5 6.5-3.5a4.1 4.1 0 0 1 1.1.1 6.77 6.77 0 0 1 4.6 4.3c.5 1 .2 2.4-.9 3.8a16.75 16.75 0 0 1-5 4.2 9.09 9.09 0 0 0 3.7.8c3.1 0 6.4-1.6 9.6-4.6a3 3 0 0 1 .2-1 8.78 8.78 0 0 1 4.7-5.2 9.87 9.87 0 0 1 4.6-1.2 11.05 11.05 0 0 1 4.9 1.2l-.7-2c-.1-.4-.2-.7-.3-1s-.3-.7-.4-1.1c-3-8.9 1-12.1 3.6-13.2a5.09 5.09 0 0 1 2-.4 3.89 3.89 0 0 1 2.3.7c2.6 1.4 3.9 5.5 4.1 8.8.3 5.1-2.2 9.4-5.1 13.4a7.29 7.29 0 0 0 .9 1.1 9 9 0 0 0 5.9 3.2 3 3 0 0 0 1-.2 1.42 1.42 0 0 1 .6-.2 1.3 1.3 0 0 1 1.2.8 1.31 1.31 0 0 1 .1 1.2.75.75 0 0 1-.5.7 4.64 4.64 0 0 1-2.1.4c-2.7 0-6-1.8-8-4.2-.2-.2-.4-.5-.6-.7a22.05 22.05 0 0 1-5.1 3.9c-2.8 1.7-5 2.4-7 2.4a9 9 0 0 1-4-1.1 4.18 4.18 0 0 1-1.9-2.9 15.78 15.78 0 0 1-9.9 3.9 12 12 0 0 1-6.4-1.9c-3.4 1.8-6.4 2.8-8.1 2.8h-.4a3.34 3.34 0 0 1-2.5-1.5c-1.5-2.1-1.4-5.9-1.2-7.9a12.48 12.48 0 0 1-2.1.2 12 12 0 0 1-4.2-.8 11.22 11.22 0 0 1-1.3-.5c-.8 2.6-2.7 7.2-6.8 9.5a5.36 5.36 0 0 1-2.6.7 5.08 5.08 0 0 1-1.7-.3c-1.8-.7-3.4-2.6-4.8-5.6-1.4 2-4.2 5.5-7.3 6.5-.2.4-.7.4-1.2.4zm70.1-13.3a6.92 6.92 0 0 0-3.4.9 5.73 5.73 0 0 0-3.2 3.5 2.92 2.92 0 0 0-.2.9c0 1.7.2 3.3 1.5 3.8a5.23 5.23 0 0 0 1.8.3h.6a13.94 13.94 0 0 0 5.1-2 20.51 20.51 0 0 0 4.8-3.7c0-.1-.1-.1-.1-.2-.9-1-3.6-3.5-6.9-3.5zm-23-1.2a.75.75 0 0 0-.5.1 6.46 6.46 0 0 0-3.9 3c-.8 1.8 1.1 3.9 1.9 4.8l.1.1a21.61 21.61 0 0 0 5.3-4.1 2.23 2.23 0 0 0 .5-1.1c-.1-1.5-2-2.8-3.4-2.8zM134.9 3a2.35 2.35 0 0 0-.8.2c-3.9 1.6-3.3 6.2-2.1 9.8a8.8 8.8 0 0 1 .5 1.5l.3.9a32.8 32.8 0 0 0 2 5.3 3.51 3.51 0 0 0 .5-.8c.1-.2.2-.3.2-.4a29.49 29.49 0 0 0 1.9-3.6 13 13 0 0 0 1.2-5.9c-.2-2.6-1.2-5.8-2.8-6.7a1.61 1.61 0 0 0-.9-.3zM78.1 15.3a.45.45 0 0 0-.4.3.6.6 0 0 0 0 .7 2.89 2.89 0 0 0 1.1 1.1V17a2.65 2.65 0 0 0-.3-1.4l-.1-.1c-.1-.2-.2-.2-.3-.2zM25.9 73.4a1.43 1.43 0 0 1-1.4-1.4 1.36 1.36 0 0 1 1.4-1.4c3.6-.3 8-2.3 10.5-3.5l.6-.3a61.27 61.27 0 0 0 13.8-9.2c1.6-1.4 6.4-5.5 6.6-9.2.1-2-2.3-3.6-8.2-5.4-3.4-1-10.6-2-19.1-2a106 106 0 0 0-11.4.6c-6.8.8-12.6 1.6-15.8 3.2a10 10 0 0 0 3.2 1.8 1.21 1.21 0 0 1 .7.7 1.18 1.18 0 0 1 .1 1 1.42 1.42 0 0 1-1.3.9.6.6 0 0 1-.4-.1C4 48.7.1 47.1 0 44.7a2.64 2.64 0 0 1 1.6-2.4c3.3-1.7 8.2-2.5 16.9-3.5a108.42 108.42 0 0 1 11.6-.6c9 0 16.5 1.1 20 2.2 5.3 1.6 10.2 3.6 10.1 8-.1 3.4-2.7 6.2-4.6 8.2a59.58 59.58 0 0 1-17.5 12.6c-2.4 1.5-7.6 3.9-12.2 4.2z"/><path d="M30.9 72.3h-.2a1.28 1.28 0 0 1-.7-.5 1.09 1.09 0 0 1-.2-1.1c.6-3.5-4.7-15.9-7.9-22.8a1.18 1.18 0 0 1-.1-1 1.39 1.39 0 0 1 .7-.8 1.42 1.42 0 0 1 .6-.2 1.3 1.3 0 0 1 1.2.8c.5 1 9.2 19 8.2 24.5 0 .1 0 .1-.1.2a1.49 1.49 0 0 1-1.4.8h-.1zM144.4 64a8.33 8.33 0 0 1-2.2-.3c-1.4-.5-3.1-1.5-3.5-2.9l-.1-.3c-.4-1.3-1.2-4.3 2.8-7.1a14.63 14.63 0 0 1 1.3-.9 40 40 0 0 0-2.6-4 25.08 25.08 0 0 0-2.1 2.3c-3.3 3.8-6.7 7.5-9.3 8.4a5 5 0 0 1-1.2.2 3.37 3.37 0 0 1-1.7-.5c-1.4-.9-2.5-2.8-3.3-5.9a11.79 11.79 0 0 1-1.8 2.1 8.49 8.49 0 0 1-6.4 3 15 15 0 0 1-2-.2c-2-.4-2.9-2.2-2.7-5.3a46.15 46.15 0 0 1-3.6 4.2l-.2.2a3.71 3.71 0 0 1-2.3 1.2h-.3c-1.3-.1-2.2-1.2-4-3.7-.8-1.2-1.6-2.2-2-2.2a6.87 6.87 0 0 0-1.8 1c-2.4 1.8-5.9 5.1-5.9 5.1a1.49 1.49 0 0 1-.9.4 1.27 1.27 0 0 1-.6-.1 1.37 1.37 0 0 1-.9-1.3c.1-1.1.2-2.4.2-3.3a10.59 10.59 0 0 0-1.2 1c-2.9 2.4-4.9 3.8-6.2 4.3a3.59 3.59 0 0 1-1.1.2 4.94 4.94 0 0 1-1.5-.3 8 8 0 0 1-3.2-3.6c-1.6 2.2-4.1 5.2-6.8 6.8a7 7 0 0 1-3.3 1 5.89 5.89 0 0 1-3-.9 4.89 4.89 0 0 1-2.4-4.7c.3-2.8 2.4-5 6.8-7.6a7 7 0 0 1 3.5-.9 11.19 11.19 0 0 1 6.5 2.5 1.54 1.54 0 0 1 .4.6c.6 1.5 1.7 3.8 2.8 4.3a.1.1 0 0 1 .1.1h.4c1.4-.5 4-2.6 5.5-3.9 2.3-2 3.2-2.6 4-2.6a1.14 1.14 0 0 1 .8.3c.7.3 1 1 1 3.5 1.5-1.3 2.7-2.3 3.7-3 1.4-1 2.4-1.6 3.4-1.6 1.5 0 2.7 1.2 4.2 3.4a11.21 11.21 0 0 0 2.1 2.5c.2-.1.4-.4.6-.5a59.57 59.57 0 0 0 6.6-8.7c-1.2.1-2.3.1-3.2.1-4.2.2-5.6 1.2-5.6 1.2a1.25 1.25 0 0 1-.9.4 1.53 1.53 0 0 1-1-.4l-.1-.1a1.36 1.36 0 0 1 .1-1.8c.5-.6 2.5-1.9 7.4-2 1.1-.1 2.5-.2 4.1-.3 1.4-4.7 2.6-4.7 3-4.7h.1a1.32 1.32 0 0 1 1 .6 2.13 2.13 0 0 1 .2 1.7 11.52 11.52 0 0 1-.6 2.1c4.1-.3 7.7-.5 10.1-.5a11.58 11.58 0 0 1 3.3.3 1.56 1.56 0 0 1 .8.6 1.38 1.38 0 0 1 .1 1.1 1.32 1.32 0 0 1-1.3.9.9.9 0 0 1-.5-.1 6.84 6.84 0 0 0-2.4-.2c-2.9 0-7.4.3-11.5.6-.1.2-.2.3-.3.5s-.3.5-.4.7c-1.2 4.6-1.1 6.7-.8 7.6.2.4.2.5.4.5a6.75 6.75 0 0 0 1.4.2 5.24 5.24 0 0 0 4.1-2l.1-.1.1-.1a12.44 12.44 0 0 0 3.1-4.7 1.33 1.33 0 0 1 1.4-.9 1.24 1.24 0 0 1 1.3 1.2c.5 3 1.5 6.8 2.9 7.6.1 0 .2.1.3.1h.1c2.2-.8 6.3-5.4 8.3-7.6 2.7-3 3.4-3.8 4.4-3.8a1.43 1.43 0 0 1 1 .4 60.13 60.13 0 0 1 3.8 5.5c4.6-2.4 11.1-4.8 15-4.8h.7a1.25 1.25 0 0 1 1.1.6 1.31 1.31 0 0 1-.1 1.2 1.41 1.41 0 0 1-1.4 1.1h-.4c-3.4 0-9.3 2.2-13.8 4.4.3.7.6 1.3.9 2l.3.7v.1c1.3 3.3 1.9 4.9-.6 6.8a3.07 3.07 0 0 1-2.6 1zm-.5-8.8a2.51 2.51 0 0 1-.7.4c-2.4 1.7-2 2.9-1.7 4l.1.3a2.81 2.81 0 0 0 1.7 1 3.93 3.93 0 0 0 1.4.3 1.29 1.29 0 0 0 .8-.2c.8-.7.8-.7-.3-3.8l-.3-.7c-.2-.5-.5-1.1-.7-1.6zm-75-2.9a3.94 3.94 0 0 0-2 .5c-3.6 2-5.3 3.7-5.5 5.4a2.37 2.37 0 0 0 1.2 2.1 3.26 3.26 0 0 0 1.4.4 4.14 4.14 0 0 0 2-.6c2.7-1.6 5.2-5 6.5-6.7a7.35 7.35 0 0 0-3.6-1.1z"/></g></svg>