<svg viewBox="0 0 288.92 288.88" xmlns="http://www.w3.org/2000/svg"><path d="m142.42 284.61h-4c-.49 1.33-.06 2.64-.32 4.06h-8.25v-8.24l-.06.06h8.42v-4.23h4.06v-4h-8.21c-.17 1.43.13 2.73-.23 4h-4l.06.07v-4.25h-4.25l.06.06v-4.05c1.44-.44 2.85.17 4.12-.41v-4h4.13v-4.16c-1.41.1-2.74-.22-4.06.21v4h-4.23v-4c-1.45-.47-2.87.16-4.21-.44v-4h4.23c-.11-1.49.25-2.82-.26-4.13h-4v-4.16h4.13v-4.22h-8.31v-4.15h4.28v-4c1.44-.33 2.77.1 4.09-.33a18 18 0 0 0 -.13-4h-8.24v-4.3h8.42v-8.35h8.34v-4.18c1.51.1 2.85-.23 4.25.26v8.17h-8.33v4.14h4v4.18h-4v4.25h8.2v4c-1.37.43-2.8-.2-4 .35v4h-4.28c.15 1.45-.2 2.78.24 4.09h4v4.13h4.16c-.1-1.42.24-2.74-.23-4.06h-4v-4.22h8.4v4.13h4.18c-.15-1.42.21-2.75-.23-4.07h-4v-4.1h8.46v3.94h4v-8.31h-12.5v-8.17c-1.44-.3-2.77.09-4.1-.3v-4h8.33v-4.21h4.26v12.49h4.14v-3.9c1.46-.48 2.89.16 4.16-.42v-8.17h8.44v-8.37l-.06.06 4.24-.06v4.18h4.19v4c-1.51.49-2.93-.14-4.19.46v4h-4.25v4.18h-4.18v4.16h-4.07v4.16h4.12v12.56h-4.25v4.17h-4v4h8.24v-8.24h4.25v4.12h4.23v-8.19c1.52-.21 2.83.16 4-.29v-4h4.18v-4.16h4.12v-8.25h-4.06v8.31h-4.22v4.16h-8.23v-4.07c1.4-.31 2.73.14 3.94-.28.29-1.38-.14-2.7.27-3.91 1.38-.33 2.71.18 4-.34a21.07 21.07 0 0 0 -.13-3.84c-1.41-.34-2.74.18-4.08-.37v-4h12.55v-4.19h4.3v-12.54h4.14v8.31h4.15v-4h4.25v8.31l.07-.06h-8.27v4.29h4.13v4h16.75v-4c2.84-.22 5.53.12 8.25-.22v-4.07h4.19v-4.19h8.22c.47-1.43-.17-2.85.43-4.18h4v8.42h-8.31v4.13h12.49v4.25h-12.5v4.13h12.5v12.62h-4.25v-8.47h-12.53c-.19-1.51.12-2.82-.26-4.09h-4v-4.27c-1.49.11-2.82-.23-4.12.23v4h-12.52v12.49h20.86l-.06 4.25.06-.06h-4c-.53 1.52.14 2.94-.5 4.24h-3.95v-4.05h-8.22c-.32 1.42.17 2.74-.32 4h-4l.06.06v-4.16h-4.2v-4c-1.46-.5-2.88.17-4.13-.43-.15-1.36.14-2.66-.22-3.92h-4v-12.5h-4v12.44h4.07v8.41h-4.22v4.16h-4.17v4.23h-8.42v4.16l.06-.06-4.24.07v-4.13h-4.23c.1 1.41-.22 2.74.21 4.06h4l-.06 8.43.06-.06h-4c-.48-1.27 0-2.6-.3-4-1.21-.42-2.53 0-3.93-.26-.39-1.21 0-2.53-.24-3.92-1.22-.37-2.52-.09-3.87-.18-.58 1.32 0 2.75-.42 4.22h-3.95v4.08h8.19v8.34h-4.06v-4h-4.13v4.11h-4.27v-4.13h-4.16c.1 1.41-.21 2.74.22 4.06h4c0 2.82-.06 5.63-.08 8.45l.06-.07h-4.23l.06.07v-4.24c-1.56.12-2.89-.22-4.25.26v4zm37.58-37.67h4.13v-4.15c-1.42.09-2.75-.22-4.07.21v4h-4.06v4.14c1.42-.07 2.75.23 4.06-.2zm-41.67 8.47v12.34h12.26v-12.34z" fill="#040404"/><path d="m71.28 46.11v-8.41h4.13v-4.15h4.24v-4.24l-.07.06h4.25l-.06-.06v4.27c1.55-.2 2.88.21 4.25-.31v-4l-.07.06 4.25-.06v12.62h4.21v8.38h8.31l-.06-.06.13 4.3h-8.44c.1 1.45-.22 2.78.2 4 1.39.29 2.71-.17 4 .33v4h-4.1v4.16c1.41-.15 2.74.22 4.06-.24v-4h4.22v-8.31h4.27v4h4.19v-8.04c1.44-.34 2.77.12 4.07-.34v-4h4.25v4.13h4.14c-.07-1.42.25-2.74-.22-4.07h-4v-4.27h8.44v4.27c1.49-.19 2.82.22 4.12-.27v-4h4.13v8.47h-8.25v4.16h-8.32v4.12h8.32v4.25h-21v4.22h-4.19v4.19h-4v4.19h4c.18 2.85-.13 5.54.2 8.3h4l-.06-.06v8.46c-1.46-.18-2.8.22-4.08-.26-.17-1.37.14-2.68-.24-3.93h-4v-8.43h-4.16v-4.06h-4.25v8.3h-16.69v-8.3h-4v8.24h4.06v4.28h-4.19v4.16h-4.12v4.16c1.41-.1 2.75.2 4.06-.22v-4h4.22v-4.16h8.4v4.22h-4.25v8.33h-12.49v12.59h-4.24v-8.31h-4.13v12.49h-4.13v8.25h4.07v-8.31h8.43v4.24h4.07v4c-1.37.43-2.79-.18-4.07.37v4h-12.49v4.19h8.3v8.42h-4.25v-4.12h-4.23v8.19h-4c-.44-1.36.19-2.79-.36-4-1.37-.23-2.68.14-4-.25v-4l-.06.06h4.14v-33.66h-8.23v-4.18h21c-.12-1.58.21-2.88-.27-4.21h-3.9v-8.34l-.06.06h4.25v-4.25h4v-4.23h-8.33c.24-1.52-.14-2.82.27-4 1.39-.21 2.7.13 4-.27v-4l-.06.07h8.43v-8.5l-.06.07h4.26v4h4.16v-4.03h4.18c-.1-1.51.21-2.84-.2-4.1-1.39-.27-2.71.17-4-.31v-4h4.13v-12.37h-8.25v4.07l-4.25-.07zm12.54 29.33a23.44 23.44 0 0 0 .1 4h4a22.87 22.87 0 0 0 -.12-4zm0-8.35c.12 1.52-.23 2.82.26 4.1 1.36-.1 2.65.25 3.93-.25-.1-1.35.24-2.65-.21-3.85zm4.28-8.62h4v-3.92h-4zm4-12.41c-1.41.17-2.75-.26-4 .25v3.86h4z" fill="#040404"/><path d="m280.47 142.31v8.44l.07-.07h-4.22v-4.17a17.21 17.21 0 0 0 -4.23.21c.19 1.36-.18 2.66.24 3.9h4.05l-.09 4.28.06-.06h-20.86v8.45h12.43v4.17l.06-.06h-12.55v4.24h-4.25v-4.11h-20.8v4.08h12.31v12.59h-8.25v-4.2h4.12v-4.12h-12.49v-12.57h-8.37v-4.19h-4.19v-4.12c1.53-.28 2.92.15 4.19-.33v-4h8.3v-4.17h-4v-4.16h4.09c-.07-1.51.22-2.84-.19-4.13-1.39-.18-2.7.13-4-.26v-4h4.22v-4.15h4.19v4.15h8.4v12.55h4.18c-.16 2.78.16 5.59-.18 8.43h-4.07v-4.21h-4.15v-4.09h-4.1v4h4.16v4.22h4.16v4.25h-8.31v4h8.24v-4.07h4.26v4.12h4.1v-4.09h4.08v-4.06c-1.38-.25-2.79.17-4.1-.31.1-1.37-.21-2.67.2-3.89 1.38-.21 2.7.16 3.84-.24v-8.16h-4.02v-8.4h-8.37v-4.16h-8.39v-4.28h4.13v-4.16c-1.42.11-2.75-.22-4.07.22v4h-4.15v4.21h-4.28v-12.63h16.74v-8.37h4.11v12.61h-4v4.18h4.09v4.25h8.44v4.13h25.06l-.06-.07v4.24h-4.06v4.2h8.31zm-25 8.27h12.37v-12.29h-12.39zm-25.09-8.34h4v-4h-4zm-8.54 12.76c.21 1.51-.13 2.81.26 4.12a18.26 18.26 0 0 0 4-.2 18 18 0 0 0 -.18-3.92z" fill="#040404"/><path d="m79.65 267.93v-8.43h-4.25l.06.06v-4.24h4.07v-4.19h-8.32l.06.06v-4.19l-.06.06h4.18v-16.8h4.07v-12.5h-4.06v-4.25h8.37v-4.18h4.23v-8.37h4.2v12.62h-4.2c.1 1.49-.24 2.82.24 4.12h4v12.49h-4.34v-8.19h-4.07v16.69h-4.12v8.25h4.06v-8.32h4.23v12.56h8.37v4.25h-4.11v12.5h3.91c.47 1.46-.15 2.88.43 4.24h4l-.06-.06.06 4.24h-12.52v8.24h4.07v-4.13h8.36v-4.17h8.31v4.2h-4.13v4.24l.06-.07h-4c-.42 1.37 0 2.69-.28 4.09h-16.59v-3.9c-2.85-.33-5.52-.05-8.38-.19v4.09h-4.14v-8.18h8.29v-8.46l-.07.06c1.39-.19 2.84.25 4.22-.26v-4h4.08v-12.46h-4v12.55l-4.28-.09z" fill="#040404"/><path d="m242.81 16.82h4.1v12.27c1.4.46 2.7.16 4.08.26.44-1.28.09-2.59.28-4 1.21-.45 2.52-.1 4-.24v8.38h12.6v12.6l.06-.06h-8.37v12.64h-4.12v4.16c1.41-.1 2.74.22 4.06-.21v-4c2.79.16 5.59-.17 8.43.19v4.06h-4.23c.13 1.48-.24 2.81.25 4.12h4v4.25h4.19l-.06-.07v4.25h-8.37v-4.19h-4.19v-4.23h-8.37v-4.08h-8.31v12.49c-2.79-.16-5.59.17-8.43-.18v-4.06h4.12v-4.17c-1.42.09-2.74-.24-4.06.23v4h-4.22v4.18h-4.21v-4c-1.46-.46-2.88.16-4.11-.42-.17-1.36.18-2.67-.26-3.92h-4v-4.26h4c.49-1.45-.17-2.87.45-4.2h4v4.13h12.46c.21-2.8-.13-5.55.2-8.32h4.08v4.06h8.31v-4.06h4.11v-8.33h-3.88c-.49-1.46.15-2.89-.42-4.16h-4v-8.32h-16.74v8.32h-4.17v-4.19h-4.19l.06-4.24-.06.06h4.25v-8.43l-.06.06h4.25v4h4.17v-4h4c.48 1.37-.2 2.81.4 4h4v-12.43zm20.85 25v-4h-8.16v4z" fill="#040404"/><path d="m29.42 159.12v-4.12h-12.56v-4.22h-4.24v-4.28h4.12v-8.25h-4.06v8.31h-8.44v4.19l.07-.07h-4.07v-8.33h8.26v-8.41l-.07.07h4.22v-4.22h4.25v4.07h4v-8.09h-8.19v4.08l-4.28-.09.07.06v-4.16h-8.32v-4.22h8.32v-4.24l-.07.06h4.24c-.12-1.55.22-2.88-.26-4.24h-4l.07.06v-4.25l-.07.06h8.33c.2 1.57-.15 2.87.29 4.12h4v4.06h8.31v-4.07h4.26v4.25h4.2v4.17h4.2v4.18h4v4h-8.2c-.24-1.42.14-2.74-.26-4h-4v-4.13h-8.24v4.06h8.31v8.47h12.49v4.15l.06-.06h-4.26v8.44l.06-.06h-4.22v16.67h-4c-.4-1.35.19-2.77-.37-4.13h-4zm-8.23-20.88v12.31h12.22v-12.31zm4-8.38c.08 1.51-.18 2.8.2 4.11 1.39-.08 2.68.21 4-.21a16.63 16.63 0 0 0 -.17-3.9z" fill="#040404"/><path d="m217.75 267.92c0-1.41 0-2.82 0-4.23l-.06.06h4.18v-4.25h4.25v4.13h8.25v-4.07h-8.31l.06-12.61-.06.06h4.18v-4.25h4.23v4.18h8.39v4.26h-12.47v4.16h8.35v8.2h8.26c.19-1.43-.14-2.75.24-3.94 1.4-.26 2.72.16 3.86-.23v-8.13c-1.42-.28-2.74.15-4.07-.3v-4h16.77v4.13h4.2c-.09-1.42.22-2.75-.2-4.06h-4v-4.13c1.53-.28 2.92.15 4.19-.33v-4l4.25.06-.06-.06v8.43h8.43l-.07-.06v4.12h-8.19v8.33h4v-3.92h12.51v4h-8.17v8.39h-8.37v4.14h-4.32v4.12h-4.18v-3.94h-4.19v4h-4.28l.07.07v-4.19h-4.25v-4.06h-8.37v8.31l.06-.07h-4.06c-.36-2.66 0-5.35-.23-8.38h-20.88zm37.75-12.49v12.37h12.35v-12.37z" fill="#040404"/><path d="m129.87 25.19v-4c1.26-.43 2.58 0 4-.27.41-1.21 0-2.51.25-3.94h-8.45v3.93h-4.15v-16.71h-4.24l.06.06v-4.06h8.32v4.06h4.24l-.06-.06v4.25h4.24l-.08-.07v4.28h8.48v4h8.32v-12.46l-.06.06h4.26l-.06-.06v16.74h4.17v4.25l.07-.06h-4.24c.12 1.55-.22 2.88.26 4.24h4l-.07-.06v4.25h4.25l-.06-.06v4.24h16.8l-.06-.06v16.65h-8.22v-3.94c1.39-.3 2.71.1 3.92-.26v-4h-8.26v-4.25c-1.49.12-2.82-.23-4.12.24v4h-4.19v4.18h-4.24v-4.3h-4v-4.19h8.05v-4h-12.3c-.31 1.4.12 2.72-.31 4a23.51 23.51 0 0 1 -3.88-.11c-.34-1.41.18-2.75-.35-4h-8.16v-12.57h-4.18zm8.4 8.2h12.36v-12.29h-12.36z" fill="#040404"/><path d="m25.17 37.68v4.07h8.33v-20.75h4.23v-4.1h4.18v8.3l.07-.06h-4.06v16.72h4.08v4.25h4.18l-.06-.06.06 4.25h-4.24c.1 1.5-.23 2.83.23 4.12h4v4.23h-4.25v8.35h.08-4.13c-.31-1.45.17-2.85-.35-4.12h-4v-4.27h-4.16l.06.06-.06-4.25h4.12v-8.18h-12.43v4.06h-8.43v12.56l.06-.07h-4c-.5 1.32 0 2.64-.32 4-1.18.41-2.48.09-3.84.2-.53-1.3-.07-2.7-.36-4.18h-4v-4.13h4.15v-4.25l-.06.06h4.15v-20.86h12.6v4.12h4.27zm-8.4 4.32h-4v4h4z" fill="#040404"/><path d="m188.46 284.61h-4.25l.07.07v-4.25h-4.28l.06.06v-4.24c-1.55.13-2.88-.22-4.25.27v4l.07-.06h-4.25v4.25l.06-.07h-4c-.44 1.35-.06 2.67-.3 4.08h-8.13v-8.23h8.18v-8.33h4.25v-4.26l-.06.06h16.85v-12.54c1.51-.21 2.83.18 4.16-.34v-3.9a16.08 16.08 0 0 1 4.16.2v8.18h-4.11v8.18h8.31c-.12-1.44.21-2.74-.21-3.94-1.39-.26-2.71.18-4-.3v-4h4.3v-8.31h4.13l-.06-.06v8.37h12.62l-.06 4.25.06-.06h-12.64v12.61l.06-.06h-4c-.41-1.26 0-2.58-.26-4h-12.41v4h4v4.17h-4.13v4.25z" fill="#040404"/><path d="m288.76 29.29h-29v-29.15h29zm-24.94-4.29h20.74v-20.64h-20.74z" fill="#040404"/><path d="m29.26 29.29h-29.03v-29.11h29zm-24.93-4.29h20.74v-20.64h-20.74z" fill="#040404"/><path d="m.15 288.7v-29h29.11v29zm4.26-24.92v20.73h20.66v-20.73z" fill="#040404"/><path d="m62.91 50.3v-4.19h8.37l-.07-.06c.16 2.78-.16 5.59.18 8.37h4.07v4c-1.51.5-2.93-.15-4.25.48v4l.06-.07h-4.22v4.13c-1.47.25-2.86-.15-4.21.32v4l.06-.07h-4.26v-4h-4.15v12.27h-4.15v-4.07h-12.61v-4c1.5-.45 2.91.15 4.25-.46v-3.95l-.06.06h4.24v-4.3h12.49v-4.15h8.25v-8.37h-4.06z" fill="#040404"/><path d="m272.17 46.11v-4.11h4c.37-2.84 0-5.54.24-8.33h12.37c.29 2.61 0 5.29.15 8.15h-8.27v8.37h4v4.19h4.13v4.2h-4.1v12.65l.06-.07h-4.24v4.25l.06-.06h-4.05c-.44-1.44.17-2.86-.44-4.19h-3.94l.06.07-.09-4.23h8.3v-4.18h-4.15v-8.25c-1.51-.3-2.83.14-4.09-.31v-4l-.06.06h4.22c-.11-1.55.25-2.88-.28-4.25h-3.94z" fill="#040404"/><path d="m113.06 16.76v16.8l.07-.06h-4.19v4.25h-12.62v-8.44h4.13v-8.37h-8.31l.06.06v-8.2c1.32-.41 2.65-.11 4.16-.2v4.22h16.77zm-4.2 8.53h-4v3.92h4z" fill="#040404"/><path d="m163.35 25.19v-4.13h8.19v-4.18h-12.27v-4.18h8.09v-4.11c-1.17-.47-2.51 0-3.92-.29a22.09 22.09 0 0 1 -.11-3.84c1.3-.52 2.64 0 4-.34.42-1.21 0-2.53.29-3.93h3.92c.38 1.17-.06 2.5.27 3.87 1.21.42 2.53 0 4 .27v12.39h4.19v4.28l.06-.06h-4.25v4.25l.07-.06h-4.23v8.37h-8.39l.06.06v-4.25l-.06.06h4.27c-.2-1.55.2-2.88-.3-4.24h-4z" fill="#040404"/><path d="m280.47 108.83v4c1.37.55 2.79 0 4.24.41v8.18h4.07v4.17h-8.3l.06.07v-8.46h-4.25l.06.06v-4.26c-1.56.11-2.88-.25-4.24.28v3.94l.06-.06h-4.25l.06.06v-4.08h-12.56a22.74 22.74 0 0 0 .09 3.91c1.41.34 2.75-.1 4.06.33a20.82 20.82 0 0 1 -.14 4h-8.25l.06.07-.06-16.8h4.25v4.24h25.11z" fill="#040404"/><path d="m75.4 259.5v4.14h-12.56v4.29l.06-.06h-4c-.55-1.27.07-2.69-.37-4.06h-8.25v4.13l.06-.06h-4c-.57-1.28 0-2.7-.41-4.15h-3.93v-4.23l-.07.06h4.17v-4.25h4.25v4.24c1.49-.12 2.82.22 4.12-.24v-4h12.53c.27-1.55-.13-2.87.31-4.12h4l-.06-.06v8.43h4.25z" fill="#040404"/><path d="m33.61 246.94h-16.74v-8.36l-.07.06h4.2v4h8.32v-4.06h4.18v-4.19h4.25v4.08h4.13a17.82 17.82 0 0 0 -.15-4h-4v-12.64h4.27v8.44h4v12.57h-12.46v4.16z" fill="#040404"/><path d="m221.88 4.26h4.25l-.06-.07v4.08h12.45v-8.06h16.78v4h-12.36v4.17h4v4.18h-4.1v4.26l.06-.06-4.25.06v-4.19h-20.95l.06-4.25-.06.07h4.24v-4.25z" fill="#040404"/><path d="m280.48 83.78h4c.45 1.26 0 2.58.29 4 1.2.38 2.51 0 3.89.23.41 1.23.1 2.53.2 3.9-1.27.47-2.58.1-4 .3v12.46h3.92v4.18h-8.31l.07.06v-8.43h-12.62l.06.06v-4.25h4c.47-1.45-.16-2.87.44-4.2h4v4.13h4.16c-.1-1.42.22-2.75-.21-4.07h-4v-4.24h4.25v-4.19z" fill="#040404"/><path d="m16.87 175.86v-8.44h-4.25l.06.07v-4c-1.33-.4-2.64-.06-4-.27-.41-1.22-.1-2.51-.21-3.95h8.36v4.05h8.43l-.07-.06v4.25h12.5v8.25h-4.1v-4h-12.48c-.27 1.42.16 2.74-.28 4h-4z" fill="#040404"/><path d="m280.48 184.23h4.24l-.07-.07v4c1.35.4 2.66.07 4 .26.39 1.23.1 2.53.2 4.05h-8.25v4.23h4v4.3l.07-.06-8.42.06v-4.12h-4.15c.08 1.42-.25 2.75.22 4.05h4c0 1.42-.05 2.84-.07 4.26l.06-.07h-8.43l.06.06v-12.67h8.31v-4.16h4.25v-4.18z" fill="#040404"/><path d="m280.54 284.61h-12.36c-.49 1.37 0 2.7-.35 4.09h-16.55v-4h-4.22v-4.28l-.07.06h4.19v-4.25l4.25.07-.07-.07v8.24h8.42v-3.93h16.69v4.13z" fill="#040404"/><path d="m16.87 196.78v-4c-1.36-.4-2.75-.07-4.13-.27v-4.09h4.13v-4.24l-.07.06h4.2v-4.24h4.22v4.18h4.18v4.23h-8.28v4h8.21v-4.08h4.28v8.37h-16.81z" fill="#040404"/><path d="m4.31 92.15v-4c-1.32-.39-2.63-.06-4-.26-.45-1.21 0-2.52-.3-4h16.86v-4.3l-.07.06 8.44-.07v4.19h4.18v4.23h-16.64c-.33 1.56.15 2.88-.34 4.12h-8.19z" fill="#040404"/><path d="m8.49 213.46h-8.23v-8.31h4.05v-4.24l-.06.06h8.39v-4.19h4.23l-.07-.06.07 8.43h-4.19v4.19h-4.25v4.19z" fill="#040404"/><path d="m196.83 4.26v-4.07h8.28v3.87h8.42v-3.91h8.35v4.11l.06-.06h-4.24v4.25l.06-.07h-8.37v4.26l-4.25-.07.06.06v-4.25h-4.2l.06.07v-4.25h-4.25z" fill="#040404"/><path d="m42.08.11h8.09a22 22 0 0 1 .15 3.89c-1.3.46-2.63 0-4.08.3v8.12h-12.51v-12.3h3.85c.45 1.21 0 2.53.28 3.91 1.21.41 2.51.12 3.86.19.51-1.3.01-2.64.36-4.11z" fill="#040404"/><path d="m4.31 242.82v-4c1.25-.56 2.67.08 4.19-.42v-8.19l-.07.06h4c.5-1.52-.15-2.93.47-4.25h4q0 6.31-.07 12.62l.07-.06h-4.19v8.3h-4.22v-4.12h-4.24z" fill="#040404"/><path d="m280.48 125.57v8.44l.07-.07h-4.25l.06.07v-4.25h-4.24v-4.16h-8.19v-8.34h4.07l-.06-.06v4.23c1.56-.11 2.88.24 4.25-.28v-4l-.06.06h4.24l-.06-.06v8.44h4.25z" fill="#040404"/><path d="m58.65 29.31v8.18c-1.24.5-2.56 0-3.94.32-.46 1.24-.1 2.58-.23 4.08h4.17v8.41l.07-.06-4.25.06v-4.25h-8.37l.06.06-.06-4.25h4.25v-8.36l-.06.06h4.24v-4.25l-.06.06h4.25z" fill="#040404"/><path d="m205.21 25.19v-4.25l-.07.06 21-.06-.06 4.25.06-.06h-4.25v8.43l.06-.06-4.24.06v-8.31h-4.16v4.1c-1.5-.1-2.83.21-4.09-.2-.28-1.39.17-2.71-.31-4h-4z" fill="#040404"/><path d="m79.65 25.19v-8.19c1.27-.44 2.61 0 4-.31.42-1.2 0-2.54.31-3.95a23.5 23.5 0 0 1 4-.08v8.34h4.24l-.06-.06.06 4.25h-4.2v4.18l.07-.06h-4.3l.06.06v-4.24h-4.25z" fill="#040404"/><path d="m184.21 25.19h4.25l-.06-.06v4.24h4.25l-.07-.06v4.24h-8.31v4.13h-4.27l.06.06v-4.23h-4.18v-8.38l-.07.06h4.25l-.06-.06v4.23c1.55-.12 2.88.22 4.25-.26v-4z" fill="#040404"/><path d="m125.68 276.24h-4c-.36 1.33-.06 2.64-.24 4.05-1.21.43-2.53 0-4 .29v8.16h-4.23v-16.68l-.07.06h12.62l-.06-.06v4.25z" fill="#040404"/><path d="m276.36 234.45v-8.22c1.26-.39 2.57 0 4-.25.43-1.21 0-2.53.27-3.93 1.18-.4 2.5-.06 3.87-.24.6-1.24-.09-2.67.39-4h3.92v8.19h-4v8.36h-8.44z" fill="#040404"/><path d="m62.84 16.76v12.55h-4.19l.07.06v-8.43h-4.25l.06.06v-4.24h-4.24l.06.06v-4c1.27-.38 2.58 0 4-.25.4-1.21.07-2.52.24-3.9 1.28-.46 2.62-.1 4.11-.23v8.42h4.2z" fill="#040404"/><path d="m16.87 71.16h-4.19v-8.37l-.06.07h8.38v-4.25l8.43.06-.06-.06.06 4.25h-4.19v4.14h-8.44v4.19z" fill="#040404"/><path d="m113.13 272.06h-12.62l.06.06v-4.24h8.33v-4c1.46-.46 2.88.16 4.17-.4v-4h4.05v8.31c-1.43.27-2.74-.16-4.06.32v4z" fill="#040404"/><path d="m230.25 276.31h4c.56 1.27-.05 2.68.41 4.18h8.21l-.06-.06v8.18c-1.26.44-2.55.12-3.89.22-.63-1.29 0-2.72-.47-4.22h-12.38l.06.07v-4.25l-.06.06h4.25v-4.25z" fill="#040404"/><path d="m276.29 171.68h12.5v4.13h-8.31v8.42l.06-.06-4.25.06.06-12.62z" fill="#040404"/><path d="m129.87 4.26v-4.06h8.33v4.06h8.41l-.06-.06v4.18h-12.55l.06.07v-4.25h-4.24z" fill="#040404"/><path d="m121.44 29.37h4.24l-.06-.07v8.44h-12.55l.06-4.25-.07.06h8.44v-4.24z" fill="#040404"/><path d="m280.47 150.75h4c.4 1.25 0 2.56.25 3.94 1.21.45 2.52.08 3.9.26.48 1.27.07 2.62.26 4.1h-12.59l.06.07v-4.25l-.06.06h4.25v-4.25z" fill="#040404"/><path d="m267.92 221.83v4c1.33.61 2.75 0 4.18.44v8.22l.07-.06-4.25.06v-4.23h-4.19v-8.39l4.25.07z" fill="#040404"/><path d="m276.29 205.16h4c.37 1.26.05 2.57.24 4 1.26.42 2.65 0 4 .26v4.1h-4.07v4.17h-4.25l.06.06v-12.66z" fill="#040404"/><path d="m8.5 133.94h-4c-.41 1.33-.08 2.64-.27 4-1.22.42-2.52.1-4 .21v-8.35h8.27l-.07-.06v4.26z" fill="#040404"/><path d="m.14 75.43v-4.11h8.17v8.16h-4v-4z" fill="#040404"/><path d="m4.25 242.76v12.35c-1.3.51-2.64.08-4.06.27v-12.56h4.12z" fill="#040404"/><path d="m284.65 133.93v4c1.34.47 2.65.13 4 .3.42 1.28.11 2.61.2 4.1h-8.41l.07.07v-8.44l-.07.07h4.24z" fill="#040404"/><path d="m62.84 267.93h8.31v8.25h-4.07v-4.05h-4.18v-4.26z" fill="#040404"/><path d="m37.64 280.39h-3.9v-12.39h3.9z" fill="#040404"/><path d="m184.18.16v12.33h-4v-12.33z" fill="#040404"/><path d="m276.29 217.65v4.18h-8.37l.06.07-.06-4.25 8.43.06z" fill="#040404"/><path d="m12.71 255.2v-3.89h8.18a21.28 21.28 0 0 1 .11 3.89z" fill="#040404"/><path d="m67 41.85h-4v-8.23h4z" fill="#040404"/><path d="m192.58 8.39v8.3h-4.06v-8.24h4.13z" fill="#040404"/><path d="m50.35 29.37v-8.43l-.06.06h4.24l-.06-.06v8.43l.06-.06h-4.24z" fill="#040404"/><path d="m4.43 184.27h3.88v8.16c-1.15.32-2.45 0-3.88.19z" fill="#040404"/><path d="m33.61 255.31h-8.32v-4.11h8.32l-.07-.07v4.25z" fill="#040404"/><path d="m71.21 20.94v8.32h-4.06v-8.26h4.12z" fill="#040404"/><path d="m226.13 4.27v-4.07h8.25v4h-8.31z" fill="#040404"/><path d="m42 259.5h-8.39v-4.19l-.07.07 8.44-.07-.07 4.25z" fill="#040404"/><path d="m100.48 8.48h8.34v4h-8.28v-4.06z" fill="#040404"/><path d="m16.87 184.17h-4.06v-8.31h4.06l-.07-.06v8.43z" fill="#040404"/><path d="m.21 37.77h3.91v8.23h-3.91z" fill="#040404"/><path d="m276.29 167.43v4.25l.06-.07-8.43.06.06-4.24-.06.06h8.43z" fill="#040404"/><path d="m12.62 167.42v4.06h-8.31v-4l-.06.06h8.43z" fill="#040404"/><path d="m276.29 163.3h8.32v4.13h-8.32l.06.06v-4.25z" fill="#040404"/><path d="m251.27 20.84v-8.1h4v8.1z" fill="#040404"/><path d="m4.31 167.43h-4.06v-8.25h4v8.31z" fill="#040404"/><path d="m205.21 20.94h-4.21v-8.37l-.06.06h4.24l-.06-.06v8.43z" fill="#040404"/><path d="m79.67 4.09v-3.91c2.7-.32 5.37 0 8.18-.17v4.08z" fill="#040404"/><path d="m205.14 276.3h8.31v4.07h-8.25v-4.13z" fill="#040404"/><path d="m121.5 29.31h-4c-.44-1.31-.11-2.64-.22-4.06h4.17v4.12z" fill="#040404"/><path d="m125.68 29.38v-4.19h4.19l-.06-.06v4.18h-4.19z" fill="#040404"/><path d="m62.9 4.2h-4c-.4-1.32-.1-2.65-.2-4.07h4.16v4.13z" fill="#040404"/><path d="m284.71 134v-4c1.34-.43 2.67-.09 4.08-.23v4.16h-4.14z" fill="#040404"/><path d="m159.1 25.19h4.25l-.06-.06v4.24l.06-.06h-4.25l.07.06v-4.24z" fill="#040404"/><path d="m4.24 150.75h4c.44 1.31.07 2.64.23 4.06h-4.16v-4.13z" fill="#040404"/><path d="m8.5 117.2h-4.19v-4.2l-.06.06h4.25l-.07-.06v4.24z" fill="#040404"/><path d="m79.65 29.31h-4c-.46-1.3-.12-2.63-.24-4.12h4.24l-.07-.06v4.24z" fill="#040404"/><path d="m41.91 25.19h4.19v4.18l.06-.06h-4.16v-4.18z" fill="#040404"/><path d="m25.24 163.3v-4.18h4.18l-.06-.07v4.19h-4.19z" fill="#040404"/><path d="m4.31 113h-4c-.45-1.3-.12-2.63-.23-4.12h4.23l-.06-.07v4.25z" fill="#040404"/><path d="m276.29 159.05v4.25l.06-.06h-4.26c.19-1.48-.21-2.82.27-4.12h4z" fill="#040404"/><path d="m188.46 25.19v-4c1.3-.44 2.63-.11 4.12-.23v4.24l.07-.06h-4.25z" fill="#040404"/><path d="m226.07 284.61v4c-1.31.47-2.64.13-4.12.24v-4.23l-.07.07h4.25z" fill="#040404"/><path d="m180 21h4.18v4.19l.07-.06h-4.25l.06.06v-4.25z" fill="#040404"/><path d="m280.47 284.68h4c.44 1.31.07 2.64.24 4.06h-4.19v-4.13z" fill="#040404"/><path d="m217.66 284.58v4.16h-4v-4.1h4.07z" fill="#040404"/><path d="m4.31 108.9v-4.25l-.06.06 4.25-.06-.07 4.24.07-.06h-4.25z" fill="#040404"/><path d="m8.37 176v4h-4v-4z" fill="#040404"/><path d="m4.31 104.65h-4c-.47-1.31-.13-2.64-.23-4.12h4.23l-.06-.07v4.25z" fill="#040404"/><path d="m284.72 184.23v-4c1.33-.43 2.66-.09 4.07-.22v4.16h-4.14z" fill="#040404"/><path d="m4.31 100.53v-4.25l-.06.06h4.25v4.18l-4.25-.06z" fill="#040404"/><path d="m192.58 25.19h4.19v4.18l.06-.06h-4.25l.07.06v-4.24z" fill="#040404"/><path d="m201 29.37v-4.18h4.19l-.07-.06v4.18h-4.12z" fill="#040404"/><path d="m4.31 96.28h-4c-.46-1.28-.11-2.63-.23-4.13h4.23l-.06-.06v4.25z" fill="#040404"/><path d="m46.1 29.37h4.25l-.06-.06v4.25l.06-.06h-4.19v-4.19z" fill="#040404"/><path d="m71.27 21v-4c1.32-.44 2.65-.12 4.07-.22v4.16h-4.13z" fill="#040404"/><path d="m4.31 200.91h-4c-.45-1.32-.12-2.65-.22-4.06h4.16v4.15z" fill="#040404"/><path d="m50.35 20.94h-4c-.46-1.3-.12-2.63-.23-4.12h4.23l-.06-.06v4.24z" fill="#040404"/><path d="m280.47 79.54v4.24l.06-.06-4.25.06v-4.18h4.25z" fill="#040404"/><path d="m284.66 75.35v4.19h-4.19l.07.06v-4.25l-.06.06h4.24z" fill="#040404"/><path d="m284.65 201h4c.45 1.3.12 2.63.23 4.05h-4.17v-4.11z" fill="#040404"/><path d="m196.77 29.37h4.23l-.06-.06.06 4.25h-4.19v-4.25z" fill="#040404"/><path d="m16.87 79.54h-4c-.46-1.31-.12-2.64-.24-4.13h4.24l-.07-.06v4.25z" fill="#040404"/><path d="m284.66 71.23h4c.44 1.29.11 2.62.21 4.12h-4.22l.06.06v-4.25z" fill="#040404"/><path d="m113.13 16.82v-4c1.32-.43 2.65-.12 4.07-.21v4.16h-4.14z" fill="#040404"/><path d="m25.24 37.75v-4c1.3-.42 2.64-.11 4.06-.22v4.17h-4.13z" fill="#040404"/><path d="m62.9 16.82v-4c1.33-.44 2.66-.08 4.07-.24v4.19h-4.13z" fill="#040404"/><path d="m8.5 217.71v-4.25l-.06.07 4.25-.07v4.19h-4.26z" fill="#040404"/><path d="m16.87 75.41v-4.25l-.07.07h4.2c-.12 1.48.22 2.81-.24 4.12h-4z" fill="#040404"/><path d="m4.31 221.9v-4.19h4.19l-.07-.06v4.18h-4.18z" fill="#040404"/><path d="m201 12.57h-4.19v-4.18l-.06.06h4.25v-.07 4.25z" fill="#040404"/><path d="m4.31 226h-4c-.47-1.31-.07-2.64-.26-4.12h4.26l-.06-.07v4.25z" fill="#040404"/><path d="m75.4 8.45h4c.42 1.32.11 2.65.21 4.06h-4.15v-4.12z" fill="#040404"/><path d="m8.5 230.21h-4c-.49-1.35-.15-2.79-.2-4.19l-.06.06h4.19v4.19z" fill="#040404"/><path d="m192.65 8.45v-4.19h4.18l-.06-.06v4.25l.06-.06h-4.25z" fill="#040404"/><path d="m276.29 234.39v4.25l.06-.06h-4.24l.06.06v-4.25l-.07.06h4.26z" fill="#040404"/><path d="m276.29 238.64h4.18v4.18l.07-.06h-4.19v-4.18z" fill="#040404"/><path d="m284.76 242.85v-4.16h4v4.1h-4.09z" fill="#040404"/><path d="m117.25 4.2v4c-1.31.43-2.64.11-4.06.21v-4.15h4.12z" fill="#040404"/><path d="m280.47 242.82h4.29l-.07-.06v4.22l.06-.07h-4.25l.07.06v-4.25z" fill="#040404"/><path d="m33.61 251.2v-4.26l-.07.07h4.14v4.12h-4.14z" fill="#040404"/><path d="m96.33 4.26h4.15v4.22l.06-.06h-4.15v-4.22z" fill="#040404"/><path d="m284.66 247h4c.43 1.32.11 2.65.22 4.06h-4.17v-4.13z" fill="#040404"/><path d="m58.65 50.3h4.26l-.07-.06v4.25h-4.18l.06-4.25z" fill="#040404"/><path d="m75.46 8.39h-4.22v-4.15l-.06.06h4.22v4.15z" fill="#040404"/><path d="m62.84 4.26h4.25l-.09-.06v4c-1.3.45-2.63.12-4.12.23v-4.23z" fill="#040404"/><path d="m4.31 54.43h-4.01c-.42-1.33-.13-2.66-.2-4.07h4.15v4.13z" fill="#040404"/><path d="m267.92 46.11h4.25l-.06-.06v4.25l.06-.06h-4.25l.06.07v-4.26z" fill="#040404"/><path d="m155 4.27v-4c1.29-.45 2.62-.11 4-.23v4.17h-4.1z" fill="#040404"/><path d="m146.61 4.26v-4c1.3-.48 2.63-.08 4.12-.27v4.27l.06-.06h-4.24z" fill="#040404"/><path d="m96.39 4.2h-4c-.4-1.32-.1-2.65-.2-4.07h4.17v4.13z" fill="#040404"/><path d="m50.28 267.94h4c.47 1.29.12 2.62.24 4.11h-4.23l.06.07v-4.24z" fill="#040404"/><path d="m79.65 272.06h-4.14v-4.13h4.14l-.07-.06v4.25z" fill="#040404"/><path d="m217.69 267.86v4c-1.28.45-2.62.11-4.05.22v-4.18h4.11z" fill="#040404"/><path d="m50.29 272.05v4c-1.31.43-2.65.11-4.06.21v-4.16h4.12z" fill="#040404"/><path d="m226.13 276.3v-4c1.3-.46 2.63-.13 4.12-.23v4.23l.07-.07h-4.25z" fill="#040404"/><path d="m62.93 280.4h-4c-.47-1.26-.1-2.6-.23-4h4.2v4.09z" fill="#040404"/><path d="m129.87 280.43h-4.19v-4.19l-.06.07h4.25l-.06-.07v4.25z" fill="#040404"/><path d="m222 280.49v-4.19h4.18l-.06-.06v4.25l.06-.06h-4.25z" fill="#040404"/><path d="m242.87 280.49v-4.25l-.06.07 4.25-.07c0 1.42-.05 2.83-.07 4.25l.07-.06h-4.25z" fill="#040404"/><path d="m54.39 284.58h-4v-4h4z" fill="#040404"/><path d="m62.91 284.67v-4.27l-.06.06h4c.4 1.35.11 2.68.21 4.15h-4.22z" fill="#040404"/><path d="m180.09 284.61h-4.24l.06.07v-4.25l-.07.06h4.25l-.06-.06v4.25z" fill="#040404"/><path d="m201 284.61h-4c-.42-1.31-.11-2.64-.2-4.06h4.2v4.13z" fill="#040404"/><path d="m222 284.61h-4.29l.06.06v-4.15h4.23l-.07-.06v4.25z" fill="#040404"/><path d="m67.09 4.27v-4c1.32-.44 2.65-.13 4.09-.27v4.3l.06-.06-4.24-.04z" fill="#040404"/><path d="m62.84 284.61v4c-1.32.44-2.65.08-4.07.24v-4.19h4.14z" fill="#040404"/><path d="m104.69 284.68h4c.43 1.31.12 2.64.21 4.05h-4.16v-4.12z" fill="#040404"/><path d="m121.54 288.72v-4h4v4z" fill="#040404"/><path d="m146.55 284.61v4c-1.31.47-2.64.08-4.13.26v-4.26l-.06.07h4.25z" fill="#040404"/><path d="m150.72 284.69h4c.47 1.28.12 2.62.23 4h-4.18v-4.11z" fill="#040404"/><path d="m175.85 284.61v4c-1.31.49-2.64.08-4.13.27v-4.26l-.06.07h4.25z" fill="#040404"/><path d="m184.21 284.61v4c-1.29.48-2.63.07-4.12.27v-4.27l-.06.07h4.25z" fill="#040404"/><path d="m188.4 284.67h4c.46 1.32.08 2.65.24 4.07h-4.18v-4.13z" fill="#040404"/><path d="m201 284.68h4c.42 1.3.11 2.63.21 4.05h-4.21v-4.12z" fill="#040404"/><path d="m92.14 201v-4.25h-4.14l.07.07q0-4.23-.07-8.44h4.2v4.13h4.16c-.1-1.42.22-2.75-.22-4.07h-4v-4.18h-4.14v-4.26c-1.49.18-2.82-.24-4.12.28v4h-4.17v-12.64h3.93v-8.4h-8.24l.06.06v-4.24l-.06.06h12.6l-.07-.07v4.25h12.62l-.06-.06v4c-1.26.44-2.59 0-4 .28-.35 1.22 0 2.51-.2 3.87 1.34.47 2.67 0 4.07.31a20.36 20.36 0 0 1 .17 4h-8.12c-.44 1.42-.15 2.72-.24 4.1 1.29.43 2.61.05 4 .28.42 1.21 0 2.53.27 4h8.22v12.6h12.62v-13.79h4c.5.17-.09 1 .68 1.28h3.32c.61-.2.24-.82.6-1.27h3.94v9.55h4.18v-9.53h4.17v9.57h4.12v4.19h-8.1c-.27 2.85-.09 5.52-.12 8.41h4.2v4.07h-8.39v-12.37h-4.23v-4.13h-4.16c.1 1.42-.22 2.75.21 4.06h4v4.14h-16.76v4.3h-4c-.35 1.26 0 2.57-.23 4h-8.27v-4h4v-4.16zm-4.07-29.32c1.4-.14 2.74.25 4.16-.28-.22-1.33.2-2.63-.31-3.91-1.35.1-2.65-.23-3.85.21z" fill="#040404"/><path d="m147.13 109.59 8.87 6c-3.08 2.08-5.87 4-8.69 5.85a4.34 4.34 0 0 1 -2.5.32h-17.43a12.85 12.85 0 0 0 -3.26.25 8.18 8.18 0 0 0 -2 2c-.33 9.66.12 19.62-.24 29.67h-11.81a3.32 3.32 0 0 1 -.36-2.32q0-13 0-26c0-9 7.57-16 15.72-15.83 7.19.18 14.4.06 21.7.06z" fill="#254588"/><path d="m128.2 150a35.81 35.81 0 0 1 0-9.7 13.28 13.28 0 0 1 5.33-8.31c1.79-1.37 3.88-2.19 5.77-3.38a2.41 2.41 0 0 1 1.12-.18 50.39 50.39 0 0 1 6.26-.09c4.42.43 8.16 2.18 10.71 6.07.51.77 1.11 1.5 1.62 2.29a9.23 9.23 0 0 1 1.61 5.56c-.07 1.85-.12 3.71 0 5.56a8.88 8.88 0 0 1 -1.38 4.55c-2.18 4.29-6.09 6.64-10.36 8.37-1.48.61-3.22.13-4.83.27-3.7.34-6.65-1.26-9.6-3.23a11.24 11.24 0 0 1 -4.71-5.76 8.72 8.72 0 0 0 -1.54-2.02z" fill="#f6ec23"/><path d="m167.4 135.2c3.94 0 7.76-.19 11.49.12a4.46 4.46 0 0 1 .47 2.67v25.55a15.89 15.89 0 0 1 -12.4 15.65 12 12 0 0 1 -3 .22q-10.11 0-20.21 0a4 4 0 0 1 -2.47-.45c-2.29-1.57-4.61-3.1-6.91-4.67a1.24 1.24 0 0 1 -.67-.91 2.18 2.18 0 0 1 1.07-1.13 20.81 20.81 0 0 0 3.27-2.16c2.66-2.74 5.94-2.84 9.42-2.75 4.87.13 9.75 0 14.63 0 3.74 0 5-1.33 5.05-5 0-7.9 0-15.8 0-23.7a11.46 11.46 0 0 1 .26-3.44z" fill="#ce2a34"/><g fill="#040404"><path d="m155 50.24v4.25h4.19l-.07-.07v8.44h4.25l-.06-.07v4.21l.06-.06h-4.27v4.25l.07-.07h-4.25v4.25l.06-.06h-4c-.38-1.26-.07-2.57-.24-3.95-1.29-.45-2.63-.07-4.12-.24v8.38h-8.42v4.24l.07-.06h-4.27v4.32l.06-.07h-4c-.62 1.32 0 2.74-.45 4.19h-4l.06.06v-4.27h-4.24l.06.06v-4.18h8.26v-4c-1.21-.6-2.65.09-4-.39v-4h8.18v-8.35h-4.11v-4.26h4.18v-4.18h4.17v8.3h4.22v-8.3h8.41v8.3h4v-8.24h-4.06v-8.43z"/><path d="m83.77 92.09h12.56v-4.18h4.24v8.4h4.15v4.15h8.41v4.17h-12.6v4.24h-4.17v4.13h-4.09v4.17h4v8.43l.06-.06h-8.26v4.2h4.07v4.26l.06-.07h-4.2v4.25l.07-.06h-4.3l.06.06v-8.18c-1.32-.39-2.63-.08-4-.26v-8.3h4v-12.6l-.06.06h4.23c-.19-1.56.21-2.89-.3-4.24h-4l.06.06v-4.08c2.77-.33 5.58 0 8.37-.17v4.12h4.16c-.1-1.41.22-2.74-.21-4.06h-4v-4.14h-8.31z"/><path d="m150.73 217.71v-8.37h-4.18v-4.18h-8.37v-4.16h8.43v-12.65l-.06.06h4.24v-4.24l-.06.06h4.2l-.06-.06v8.42h4.23v4.25l.06-.07h-8.23v8.4h8.24v12.59z"/><path d="m184.21 92.09v8.17c1.32.45 2.64.1 4 .29.44 1.21.1 2.51.22 3.85-1.28.66-2.72 0-4.1.45v4h12.49v4c-1.31.49-2.62 0-4.18.34v12.47l-8.43-.07.06.06v-7.85c-.36-.77-1-.43-1.45-.77v-10.88h-2.2c-.73-.35-.48-.92-.71-1.45h-4v-8.42l-.07.06h4.16c.28-1.53-.15-2.92.33-4.19h4z"/><path d="m184.22 171.67h8.43v-8.43l-.07.06h8.42l-.06-.06.06 4.25h-4.1v4.18c1.41-.16 2.75.2 4.06-.23v-4h4c.48 1.51-.14 2.92.45 4.19h4v4.25h4.18l-.06-.06v8.31h-4.07c-.27-1.38.2-2.79-.34-4.09-1.35.1-2.65-.24-3.86.22-.21 1.37.14 2.68-.24 3.92h-4l.06.07v-8.3h-4.23v4h-4c-.45-1.35.2-2.78-.42-4.12h-8.14l.07.06v-4.25z"/><path d="m88 159.12v-12.56h-4.17v-4.25l-.06.07h4.23v-4.25l-.07.06h4.27v-4.25l-.06.07h8.22c.44 1.25 0 2.57.27 4 1.21.41 2.53.06 3.94.25v8.22h-4v-4h-8.3v4.06h4v8.35h4.19v4.27l.06-.07h-12.52z"/><path d="m163.29 96.28v9.72h-3.92c-.41-.17-.14-.74-.41-1.35h-4l.06.07v-16.82h-4.25l.07.07v-3.97c1.26-.58 2.68.06 4.18-.43v-8.2l-.06.06h4.25l-.07-.06v4.18h8.44v4.26h-4.23v4.15h-4v8.4h4.06z"/><path d="m217.76 150.75h-4c-.4-1.32-.09-2.62-.29-4.25h-12.47l.06.06v-8.31h-4.06c-.42 1.37.18 2.79-.36 4.06h-4l.07.07v-4.25h-4.31l.06.06v-4c1.27-.46 2.67 0 4.12-.33v-8.29h4.1v8.34h8.51v8.41h12.57z"/><path d="m192.65 200.91h-8.38v4.25h-4.27l.06-12.62-.06.06h8.42v-8.31h4.23v8.4h8.35v4.09l.06-.06h-8.44v4.28z"/><path d="m213.57 159.05-.06 4.25.06-.06h-12.57l.06.06v-4.25h-8.44l.07.07v-4c-1.32-.63-2.74 0-4.19-.46v-4l-.06.07h4.25v-4.23l-.07.06h8.38l-.06-.06.06 4.24h-4.1v4.19c1.41-.16 2.74.21 4.06-.24v-4h4.15v8.37z"/><path d="m113.06 100.52v-8.4h4.2v-4.12h4.24l-.06-.06v4.24h4.24l-.06-.06v8.43z"/><path d="m138.14 96.25v4c1.35.5 2.66.12 4.07.33.38 1.74.09 3.54.2 5.42h-4c-.37-.16-.12-.73-.37-1.33h-8.22l.06.07v-4.23h4.12v-4.2h4.21z"/><path d="m175.91 96.28h-12.62l.06.06v-4.25h4.17v-4.09h4.1c.21 1.38-.15 2.78.25 4 1.4.21 2.71-.13 4 .25v4z"/><path d="m138.17 83.78h4.07v12.47h-4.1l.06.06v-4c-1.3-.56-2.71.05-4.15-.4v-4l-.05.09h4.25v-4.28z"/><path d="m159.1 196.79h16.68v4.06h-16.62v-4.13z"/><path d="m180.09 192.54h-4.09v-8.07c-1.46-.53-2.86-.08-4.12-.35a1.09 1.09 0 0 1 .09-1.32h10.84v-6.65c.57-.48 1-.26 1.47-.29l-.07-.06v8.4h-4.21v8.4z"/><path d="m175.84 213.53v-4.19h-4.18v-4.25h8.43v8.44z"/><path d="m163.35 188.35h-4c-.59-1.26.07-2.68-.45-4.23h-4l.06.06v-1.26h12.34c.3.38.23.73 0 1.25h-4v4.24z"/><path d="m188.46 150.68h-4.16v8.32l-1.28.1v-12.54h5.44l-.06-.06v4.25z"/><path d="m188.46 142.31h-5.46v-8.17c.33-.29.68-.12 1.21-.08v4.13h4.24l-.06-.06v4.25z"/><path d="m146.61 188.35h-4c-.4-1.73-.07-3.48-.21-5.38h8.25c.29.36.09.83.11 1.26l.06-.06h-4.24v4.24z"/><path d="m104.7 117.27h1.3v16.53c-.38.27-.72.21-1.23 0v-16.6z"/><path d="m96.32 125.63h4c.45 1.32.08 2.66.24 4.07h-4.18v-4.13z"/><path d="m104.76 117.2h-4c-.45-1.31-.13-2.64-.22-4.06h4.16v4.13z"/><path d="m188.46 146.56v-4.25l-.06.07h4.25l-.07-.07v4.25l.07-.06h-4.25z"/><path d="m100.51 159.12h4c.45 1.3.11 2.64.24 4.12h-4.24l.06.06v-4.25z"/><path d="m192.65 163.24h-4c-.44-1.29-.11-2.63-.22-4.12h4.23l-.07-.07v4.25z"/><path d="m129.82 104.65v1.29h-12.45v-1.22h12.51z"/><path d="m167.58 104.56v-4h4v4z"/><path d="m150.73 87.9v4c-1.31.45-2.65.08-4.06.24v-4.14h4.13z"/><path d="m163.29 188.41h4c.43 1.31.11 2.65.21 4.07h-4.16v-4.13z"/><path d="m167.54 209.28h-4c-.41-1.32-.12-2.65-.2-4.07h4.16v4.13z"/><path d="m184.28 171.61h-1.28a16.56 16.56 0 0 1 -.15-3.89 1.13 1.13 0 0 1 1.35-.06v4z"/><path d="m154.92 104.64v1.27a21.36 21.36 0 0 1 -3.87.17 1.14 1.14 0 0 1 -.08-1.37h4z"/><path d="m184.22 125.57v4.14l-1.15.1c-.45-1.34-.13-2.69-.2-3.94.51-.42 1-.21 1.41-.24z"/><path d="m106.13 171.44c-.55.23-.9.29-1.32 0v-3.7c.35-.43.72-.2 1.18-.17a27.12 27.12 0 0 1 .14 3.87z"/><path d="m226.13 213.53-4.25-.07.06.07v-8.41h4.13v-8.4h8.43v-8.37l-.06.07h8.19c.45 1.24 0 2.55.27 3.86-1.35.66-2.78 0-4.15.46v4h4.06v12.6l.06-.06-4.25.06v-8.24h-8.32v8.18h-4.17z"/><path d="m268 171.61v12.56h8.37v4.24h-16.74v4.16h-4.23l.06.06v-4.24h-4.22v-4.22l-.06.06h4.25v-4.23l-.06.07h8.38v-8.44z"/><path d="m251.24 171.61v4.19h4.19l-.06 4.25.06-.07h-4.25v4.25l.06-.06h-4.06v-12.56z"/><path d="m255.43 205.09h-4c-.47-1.25 0-2.58-.31-4-1.19-.42-2.51 0-3.9-.26-.42-1.21 0-2.51-.24-3.82 1.34-.66 2.78 0 4.23-.49v-3.92h4.26l-.06-.06v12.58z"/><path d="m268 217.71h-4.2v4.19h-4.22v-4.19h-4.22v-4.06h12.64z"/><path d="m255.43 217.65c0 2.81-.05 5.62-.07 8.43l.07-.06h-8.43l.07.06c0-1.41 0-2.83-.07-4.25h4c.58-1.25-.06-2.67.44-4.18z"/><path d="m242.81 209.34h8.31v4.06h-8.25v-4.12z"/><path d="m230.25 184.23 4.25-.06-.06 4.25.06-.07-4.25.06.07-4.24z"/><path d="m263.64 200.88h-3.94v-4h3.94z"/><path d="m255.37 205.15h4c.41 1.32.11 2.65.21 4.07h-4.16v-4.13z"/><path d="m267.92 205.09v4c-1.31.44-2.65.08-4.07.24v-4.19h4.15z"/><path d="m247.06 221.9h-4.25v-4c1.36-.48 2.69-.14 4.25-.26z"/><path d="m221.88 213.46.06 4.25h-8.19c-.45-1.32 0-2.64-.32-4.14h-8.17v-4.24h8.32v-8.42l-.07.06 4.25-.07v12.63h4.18z"/><path d="m209.39 196.72h-4.25l.06.06v-8.31h4.13v8.31z"/><path d="m201 217.71h8.32v4.06h-8.32v-4.12z"/><path d="m192.58 205.16.07-4.25-.07.06h8.42l-.07-.06v4.25z"/><path d="m205.14 196.72v4.19h-4.14l.07.06v-4.25l-.06.06h4.24z"/><path d="m213.58 200.91h-4.19v-4.19l-.06.06h4.18v4.22z"/><path d="m96.32 217.65h4c.39-1.26.05-2.57.26-4h12.52v4.05h-4.1v4.16c1.42-.1 2.75.22 4.07-.22v-4h4.06v-8.33h-8.25v-4.23h16.53c.48 1.37.14 2.71.26 4.21h-4.18v12.52h-4.18v4.26h-4.25v4.19l.07-.07h-4.25l.06.07v-4c-1.31-.48-2.63 0-4-.31-.57-1.2.09-2.63-.4-4.08h-8.22z"/><path d="m146.61 209.28v8.43h-4.06v-8.43z"/><path d="m175.84 259.56h8.31v4.07h-8.25v-4.13z"/><path d="m217.7 230.2h4.24v4.18h-4.25l.06.06c-.02-1.44-.04-2.82-.05-4.24z"/><path d="m217.69 234.38v4c-1.28.44-2.62.11-4.05.21v-4.17h4.11z"/><path d="m230.32 242.82h-4.25v-4c1.36-.48 2.69-.15 4.25-.26z"/><path d="m247.06 247h-4.25v-4.25h4.25z"/><path d="m100.51 255.38v-4.19h-4.19l.07-4.24-.07.06h4c.62-1.33 0-2.74.46-4.18h4l-.07-.07v4.24c1.55-.13 2.88.22 4.25-.28v-4l-.06.07h4.1v8.3h8.47v4.25h-8.37v4.18h-4.1v-8.3h-4.21v4.12z"/><path d="m142.51 259.6h4v4h-4z"/><path d="m104.76 242.83v-4.19h-16.76v-4.17h8.41v-4.14h4.17v4h4.16v-4h4.25l-.06-.07v4.23c1.56-.11 2.89.23 4.25-.25v-4l-.07.07 4.25-.07v8.44h-8.43v4.19l.06-.07h-4.25z"/><path d="m184.28 217.71h-4.28v-4.25h4.25z"/><path d="m217.76 251.13v4.25h-4c-.49-1.36-.15-2.7-.27-4.25z"/><path d="m221.94 259.56h-4.24v-4.24h4.24z"/><path d="m255.36 226.08h4.07v12.56h-8.25v-4c-1.27-.6-2.68 0-4.12-.43v-4l-.07.07h8.44v-4.28z"/><path d="m242.81 226 4.25.06-.06-.06v4.25l.07-.07-4.25.07z"/><path d="m251.24 238.58v4.24h-4.24v-4.24z"/><path d="m58.72 180h-8.26v-8.19c1.18-.39 2.51.06 3.9-.29v-3.91h-8.17v8.12h-4.12v-12.4h8.28v-4.27l-.06.06h4c.36 1.26.05 2.57.23 3.93 1.24.58 2.67-.07 4.13.42v4h12.62l-.06-.06v4.23h-4.06v4c1.37.44 2.79-.19 4.13.4v4l-8.44-.04.06.06v-4.26c-1.55.19-2.88-.2-4.24.29v4z"/><path d="m71.21 213.46.06 4.25h-12.56v4.12h-4.24l.06.07v-4.25h-8.43l.06.06v-4.25h-4.25l.07.07v-4.22l-.06.06h4c.66-1.35 0-2.77.49-4.23h4v-4.23l-.06.06h12.55l-.06-.06v4.22h-8.23v8.27h4.08v-3.9c1.45-.49 2.88.17 4.12-.41v-4h4.28v8.44h4.18z"/><path d="m50.35 196.78v-4.13h8.37v-4.3l-.06.06 12.61-.06v4.25h-4.18v8.4l-4.25-.06.06.06v-4.25h-12.61z"/><path d="m33.54 188.41v-4.18h-4.18v-4.23h8.35v4.14h8.29v4.29z"/><path d="m67 142.38v-12.62h4c.42 1.31.08 2.62.29 4.12h8.33v4.31h-8.41v4.19l.06-.07z"/><path d="m33.61 234.45h-4.25v-4.13h-8.36v-4.32h12.61z"/><path d="m16.87 209.34-.07-4.25 8.44.07-.07-.06v4c1.35.58 2.77 0 4.14.4v4h-8.31l.06.07v-4.25h-4.26z"/><path d="m16.8 226.08q0-6.3.07-12.62l-.07.07h4.25l-.06-.07.06 12.62z"/><path d="m46.19 196.69h-8.33v-4h8.27v4.08z"/><path d="m58.72 188.35h-8.32v-4.12h8.32l-.06-.06v4.24z"/><path d="m58.72 154.87h-8.4l.06.06v-4.08h8.27v4.05z"/><path d="m71.21 142.38h4.07v8.24h-4v-8.31z"/><path d="m79.58 138.13 4.25.06-.06-.06v4.25l.06-.07h-4.25z"/><path d="m62.84 142.31h4.25v4c-1.36.48-2.7.15-4.25.26z"/><path d="m41.9 146.57h4c.46 1.29.12 2.63.23 4.05h-4.13v-4.11z"/><path d="m50.35 159.06h-4c-.45-1.32-.07-2.65-.24-4.1h4.28l-.06-.06v4.22z"/><path d="m58.65 154.93h4.19v4.19l.06-.07h-4.18v-4.18z"/><path d="m75.46 159.06h-4c-.44-1.33-.08-2.66-.23-4.07h4.17v4.13z"/><path d="m62.84 159.12h4c.43 1.32.12 2.65.21 4.06h-4.15v-4.13z"/><path d="m71.27 167.49v-4.19h4.19l-.06-.06v4.19h-4.19z"/><path d="m29.42 180h-4.25v-4c1.37-.47 2.7-.13 4.25-.25z"/><path d="m58.72 184.23v-4.23l-.06.06h4.24l-.06-.06v4.19h-4.18z"/><path d="m50.35 200.91h-4.16v-4.22l-.06.06h4.22l-.06-.06v4.31z"/><path d="m25.24 205.16v-4c1.3-.42 2.64-.11 4.06-.21v4.17h-4.13z"/><path d="m37.78 205.1h-4c-.41-1.34-.13-2.67-.19-4.08h4.13v4.14z"/><path d="m37.72 205.16h4a12.92 12.92 0 0 1 .17 4.21l.06-.06h-3.95c-.5-1.38-.14-2.81-.22-4.21z"/><path d="m42 217.65-4.25.06v-4.18h4.25l-.07-.07v4.25z"/><path d="m25.25 221.76v-3.92a22.53 22.53 0 0 1 4.05-.17v4.09z"/><path d="m37.79 217.65v4.25h-4c-.49-1.37-.15-2.7-.26-4.25z"/><path d="m29.36 83.78v-4.18h-4.19v-4.25h12.62v4.16h8.21v4.23h-8.21v8.41h-8.43v-4.24h4c.48-1.3.08-2.63.27-4.13z"/><path d="m33.6 104.65h-16.73v-4.19l-.07.06h12.62v-4.24l-.06.06h4.18v8.37z"/><path d="m16.87 96.34v-4.25h12.55l-.06 4.25.06-.06h-12.62z"/><path d="m37.73 92.09h4.07c.34 2.84 0 5.65.18 8.43h-4.25z"/><path d="m29.42 113.08h-8.42v-4.08h8.43z"/><path d="m42.09 113.13h3.91v4h-3.91z"/><path d="m33.54 104.71h4c.43 1.3.07 2.64.23 4.06h-4.17v-4.12z"/><path d="m8.43 104.71v-4.25h4.25v4.25z"/><path d="m12.62 100.52v-4.18h4.25l-.07-.06v4.24l.07-.06z"/><path d="m117.25 79.54v4.16h-8.39l.06.06v-8.35h4.21l-.07-.06v4.25h4.25z"/><path d="m117.25 75.41h4c.45 1.31.11 2.64.24 4.13h-4.24l.06.06v-4.25z"/><path d="m113.13 75.41v-4c1.3-.45 2.64-.11 4.12-.23v4.23l.06-.06h-4.25z"/><path d="m121.55 67.1h3.89c.49 1.24.07 2.58.24 4h-4.13z"/><path d="m54.44 87.88v8.34h-8.21v-4.06h4v-4.22h4.25z"/><path d="m58.72 87.91h-4.28l.07.06v-3.97c1.33-.44 2.66-.08 4.15-.24v4.24z"/><path d="m67 117.26v-4.26h4.2v-8.27h4.15v8.27h4.16v4.22z"/><path d="m83.83 108.83h-4c-.47-1.3-.07-2.63-.26-4.12h4.26l-.06-.06v4.24z"/><path d="m134.05 58.67h-4.24v-4.25h4.24z"/><path d="m134.05 41.93h-4.24v-4.25h4.24z"/><path d="m92.14 25.13h4.25v4.24h-4.25z"/><path d="m108.88 37.68h4.25v4.25h-4.25z"/><path d="m104.69 46.12h4c.45 1.31.12 2.64.23 4.09h-4.26l.06.06v-4.21z"/><path d="m113.06 41.87h4.25v4.25h-4.25z"/><path d="m104.76 46.06h-4c-.41-1.32-.11-2.66-.2-4.07h4.15v4.13z"/><path d="m75.4 54.49v-8.44h4.25v8.44z"/><path d="m217.7 96.28h4.14v-12.5h4.23v-4.25h12.51v4.15h-8.2v4.23h12.43v4.24l.06-.06h-8.31v4.25h8.31l-.06-.06v8.43h-4.19v-4.14h-20.92zm8.49-.18c1.24.46 2.58.1 4 .22v-4.1h-4z"/><path d="m205.1 113v4c1.36.52 2.69.07 4.1.35.36 1.21 0 2.51.2 3.85-1.34.52-2.67 0-4.08.34-.33 1.22 0 2.52-.19 3.84 1.35.53 2.68 0 4.09.36a21.78 21.78 0 0 1 .13 3.93h-8.26v-8c-1.41-.55-2.74-.05-4.15-.37a20.24 20.24 0 0 1 -.13-3.84c1.3-.54 2.63 0 4-.35.41-1.2 0-2.53.32-4.08h4z"/><path d="m201 96.34v-4.16h12.58v-4.18h4.22v8.31z"/><path d="m196.77 108.89v-4c1.32-.62 2.74 0 4.19-.45v-4h8.31v4.19h-4.13v4.24l.06-.06z"/><path d="m217.76 117.2v12.62h-4.06v-12.62z"/><path d="m221.94 129.76v4.24l-4.25-.08.06.06c0-1.41 0-2.82-.05-4.23z"/><path d="m217.69 133.93v4c-1.28.45-2.62.11-4.05.22v-4.15h4.11z"/><path d="m221.94 117.26h-4.24l.06-4.24-.06.06h4.3l-.07-.07z"/><path d="m222 113.09v-4.19h4.18l-.06-.07v4.17h-4.19z"/><path d="m217.76 113h-4c-.43-1.32-.12-2.65-.21-4.07h4.16v4.13z"/><path d="m205.14 108.89h4c.43 1.32.12 2.65.21 4.09h-4.25l.06.06c0-1.4 0-2.81 0-4.21z"/><path d="m238.69 104.65v4.24h-4c-.48-1.36-.14-2.7-.26-4.24z"/><path d="m226.13 108.9v-4c1.32-.42 2.65-.12 4.06-.21v4.16h-4.12z"/><path d="m201 100.52h-4.14v-4.24h4.14z"/><path d="m268 83.72v4.14h-8.37v4.29h-8.37v-4.24l-.06.06h4.12v-12.62h-8.32l.07.06v-8.41h4.18v4.18h8.37v4.19h4.19v8.37z"/><path d="m255.36 104.71v-4.19h-4.18v-4.07c2.84-.32 5.65 0 8.43-.17v8.43z"/><path d="m251.24 87.91h-4.18v-8.37l-.07.06h4.19v8.4z"/><path d="m255.5 125.65h3.91a18.86 18.86 0 0 1 .16 4.06h-4.07z"/><path d="m251.18 121.38v4c-1.32.43-2.65.08-4.06.23v-4.18h4.12z"/><path d="m251.24 100.46v4.25h-4c-.48-1.36-.14-2.7-.26-4.25z"/><path d="m259.55 92.09h4c.49 1.36.09 2.7.29 4.25h-4.27z"/><path d="m242.81 92.15h4c.46 1.3.12 2.64.24 4.13h-4.23l.06.06v-4.25z"/><path d="m242.81 75.35 4.25.06-.07-.06v4.25l.07-.06h-4.25z"/><path d="m226.13 79.6h-4c-.46-1.36-.12-2.69-.25-4.25h4.24z"/><path d="m263.69 142.36v4.07h-4v-4a21 21 0 0 1 4-.07z"/><path d="m242.81 146.56v-4.25h4.25v4.25z"/><path d="m255.36 175.86v-4.25h4c.48 1.36.14 2.69.26 4.25z"/><path d="m226.13 175.8v4c1.26.6 2.68-.05 4.12.43v4l.07-.06h-12.65v-8.37h-4.16l.06.06-.06-4.25h4.25v-4.18l-.06.06h4.14v8.31z"/><path d="m213.51 163.3 4.25-.06-.06 4.25.06-.06-4.25.06.06-4.25z"/><path d="m54.47 242.82v-4c1.31-.43 2.63 0 4-.27.45-1.21.12-2.51.22-4h-8.36v-8.4h-4.17v-4.26l-.06.07h8.43l-.06-.07v8.11c1.32.44 2.63.05 3.94.26.64-1.35 0-2.78.44-4.15h4v8.18h4.15v-8.16h8.42v4.11h-4.05v8.27h-8.48v4.28z"/><path d="m54.53 255.38h-4.24v-12.62h4.24z"/><path d="m71.27 247h-4c-.43-1.32-.08-2.65-.23-4.07h4.18v4.07z"/><path d="m58.74 251.05v-3.88c1.29-.4 2.62-.11 4-.2v4.08z"/><path d="m92.14 217.71v-4.25h4.25v4.25z"/><path d="m71.21 217.65h4.25v4c-1.37.49-2.7.14-4.25.26z"/><path d="m96.32 255.32h4.25v8.31h-4.25z"/><path d="m96.39 247h-4c-.45-1.32-.08-2.66-.24-4.07h4.18v4.07z"/><path d="m83.77 200.91.06 8.43h-4c-.62-1.32 0-2.73-.48-4.25h-4l.06.07-.06-4.25 8.43.06z"/><path d="m75.46 213.53-4.25-.07.06.07-.06-8.44 4.25.07-.06-.07z"/><path d="m88 196.72c0 1.42 0 2.83.07 4.25l-4.25-.06.06.06v-4.18h4.12z"/><path d="m167.47 62.86h4.25l-.06-.07v4.27c1.55-.2 2.88.21 4.25-.31v-4l-.07.07h4c.38 1.25.07 2.56.24 3.93 1.29.48 2.62.08 4.11.25v-8.33h4.24l-.06-.06v4.25h4.25l-.07-.07v4c-1.25.61-2.66-.05-4.18.47v4l.06-.06h-4.07c-.32 2.85 0 5.65-.18 8.44l.07-.07h-4.25v-4.2h-4.16v-4h-8.33v4.06l-8.44-.06.07.06v-4.27l-.07.07h4.25v-4.23l-.06.06h4.25v-4.27z"/><path d="m201 67h8.29v4.15h-3.81c-.51 1.4-.17 2.73-.26 4.15h8.33v-8.3h4.25v16.72h-8.43l.06.06v-4h-8.43v4l.06-.06h-4.06v-8.33h4z"/><path d="m209.33 83.72v4.06h-8.33v-4.06l-.06.06h8.43z"/><path d="m184.22 88h8.31v4.12h-8.32l.07.06v-4.27z"/><path d="m184.21 79.6h8.32v4.12h-8.32l.07.06v-4.25z"/><path d="m184.21 83.72v4.25l.06-.06h-4.23c.11-1.5-.23-2.83.23-4.13h4z"/><path d="m188.4 71.22h4c.42 1.32.12 2.65.21 4.07h-4.16v-4.13z"/><path d="m196.77 62.79h4.23v4.21h-4.25z"/><path d="m196.77 58.61.06 4.25-4.25-.07.07.07v-4.25l-.07.06h4.25z"/><path d="m226.07 58.67v-12.62h4c.39 1.33.06 2.64.26 4 1.26.42 2.65 0 4 .26v4.09h-4.07v4.24z"/><path d="m251.24 54.49h-8.43v-4.25h8.43z"/><path d="m242.87 46.05v4.25h-4c-.48-1.36-.13-2.69-.26-4.25z"/><path d="m242.9 41.83h-4c-.49-1.25-.11-2.59-.24-4h4.2v4.07z"/><path d="m247.06 41.87v4.25h-4.25l.09-4.29-.06.07z"/><path d="m221.88 41.93 4.25-.06v4.24l-4.25-.06.06.06v-4.24z"/><path d="m201 33.5h8.3v4.21h-4v4.22h8.3l-.06-.06v4.24h-4.18v12.56l.06-.06h-12.65l.06.06v-4.25l-.06.07h4.23v-4.25h4.2a22.21 22.21 0 0 0 -.13-4.18 25.07 25.07 0 0 0 -4 .19v4l-4.25-.06.06.06v-4.2h-4.25l.07.06v-4.11h8.3z"/><path d="m217.69 50.24v8.37h-4.18l.06.06v-8.37h4.19z"/><path d="m213.51 58.61v4c-1.3.48-2.63.08-4.12.27v-4.27l-.06.06h4.24z"/><path d="m221.88 46.05v4.19h-4.19l.07.06v-4.19h4.18z"/><path d="m267.92 67v-4.21h4.25v4.21z"/><path d="m267.92 50.23v4c-1.31.44-2.64.07-4.06.23v-4.16h4.14z"/><path d="m276.35 83.72v4.28h-4.24v-4.28z"/><path d="m272.17 83.78h-4.25v-4c1.37-.5 2.7-.15 4.25-.27z"/><path d="m226.07 21v-4.24h12.62v4.24z"/><path d="m213.57 41.93v-8.43h4.19v4.18h4.18l-.06 4.25.06-.06h-8.43z"/><path d="m29.3 142.48v4h-4v-4z"/><path d="m268 234.39v4.25h-4c-.49-1.37-.12-2.7-.29-4.25z"/><path d="m263.76 263.66h-4a21.52 21.52 0 0 1 -.14-4 21.38 21.38 0 0 1 4-.15 22.16 22.16 0 0 1 .14 4.15z"/><path d="m251.24 276.31h-4.24v-4.25h4.25z"/><path d="m163.29 54.49h4.18v8.37l.07-.07h-4.25l.06.07v-8.44z"/><path d="m171.72 62.86v-4c1.3-.48 2.64-.08 4.12-.27v4.27l.07-.07h-4.25z"/><path d="m188.46 58.67v-4.18h4.19l-.07-.07v4.25l.07-.06h-4.25z"/><path d="m192.65 54.49v-4.25l-.07.06h4.25l-.06-.06v4.25l.06-.07h-4.25z"/><path d="m159.1 50.24h4.25l-.06 4.25.06-.07h-4.25l.07.07z"/><path d="m192.65 50.24h-4.14v-4.13h4.14l-.07-.06v4.25z"/><path d="m163.29 46.05h4.25v4.25h-4.25z"/><path d="m142.49 29.25v-4h4v4z"/><path d="m25.17 67h4.19v-4.21h4.25v8.21h-8.44z"/><path d="m46.16 41.93h-4.24v-3.93c1.35-.48 2.68-.14 4.24-.26z"/><path d="m54.53 50.24v4.18h4.19v4.25h-8.39v-4.18h-4.23v-4.25z"/><path d="m29.42 54.49h-8.42v-4.25h8.43z"/><path d="m21.05 54.42v4.25h-4c-.5-1.36-.1-2.7-.3-4.25z"/><path d="m280.44 8.57v12.25h-12.33v-12.25z"/><path d="m8.6 8.48h12.28v12.35h-12.28z"/><path d="m8.58 268h12.28v12.39h-12.28z"/><path d="m267.92 100.46v4c-1.31.43-2.64.12-4.06.21v-4.16h4.14z"/><path d="m46.16 255.38h-4.25v-8.16c1.36-.49 2.69-.14 4.25-.26z"/><path d="m41.91 221.9.07-4.25-.06.06h4.24l-.06-.06v4.25l.06-.07z"/><path d="m29.42 234.39v4.25h-4c-.45-1.37-.13-2.7-.25-4.25z"/><path d="m209.33 12.57h8.43v4.06h-8.43z"/><path d="m16.87 213.46-4.25.07v-4.25l4.25.06-.07-.06v4.25z"/><path d="m75.46 201h-4.25v-8.43h4.19v-4.19h8.43v4c-1.34.59-2.76 0-4.22.43v4h-4.15z"/><path d="m75.46 188.41h-4.25v-8.41h4.25z"/><path d="m88 184.17v4.24h-4.23v-4.24z"/><path d="m167.47 79.6v-4.25h4c.46 1.37.13 2.7.25 4.25z"/><path d="m201 184.16v4c-1.32.44-2.65.12-4.07.22v-4.16h4.07z"/><path d="m213.67 188.44h3.94v4h-3.94z"/><path d="m230.32 188.35v4.25h-4.25v-4.25z"/><path d="m226.13 192.54v4.24h-4.25v-4.24z"/><path d="m221.94 196.72v4.28h-4.24v-4.25z"/><path d="m213.57 167.43v4.24h-4.24v-4.24z"/><path d="m71.27 200.91v4.25h-4.27v-4.25z"/></g></svg>