<svg style="" width="20.830078" height="23.941406" version="1.1" xmlns="http://www.w3.org/2000/svg">
<path d="M5.864063 14.080078 C5.864063 14.220704 5.828907 14.475584 5.758594 14.844727 C5.688281 15.213869 5.617969 15.618162 5.547656 16.057617 C5.477344 16.497073 5.407032 16.971677 5.336719 17.481445 C5.266406 17.991213 5.196094 18.474607 5.125781 18.931641 C5.055469 19.388674 4.985157 19.819334 4.914844 20.223633 C4.844531 20.627932 4.791797 20.935546 4.756641 21.146484 C4.721484 21.216797 4.668750 21.251953 4.598438 21.251953 L0.643360 21.251953 C0.467577 21.251953 0.309376 21.181641 0.168750 21.041016 C0.028124 20.900390 -0.024609 20.724610 0.010547 20.513672 L3.121875 0.949219 C3.157032 0.667967 3.271288 0.448243 3.464649 0.290039 C3.658009 0.131835 3.895311 0.052734 4.176563 0.052734 C5.160943 0.052734 6.285931 0.043945 7.551563 0.026367 C8.817194 0.008789 9.669725 -0.000000 10.109180 -0.000000 C10.548635 -0.000000 11.084763 0.008789 11.717578 0.026367 C12.350394 0.043945 12.798632 0.079101 13.062305 0.131836 C13.325978 0.184571 13.616014 0.246093 13.932422 0.316406 C14.248830 0.386719 14.582811 0.492187 14.934375 0.632812 C16.410945 1.230472 17.324998 2.223626 17.676563 3.612305 C18.028127 5.000984 17.887503 6.468742 17.254688 8.015625 C16.164838 11.144547 13.703926 12.744140 9.871875 12.814453 C9.590624 12.814453 9.177542 12.805664 8.632617 12.788086 C8.087693 12.770508 7.718556 12.770508 7.525195 12.788086 C7.331835 12.805664 7.085744 12.849609 6.786914 12.919922 C6.488085 12.990235 6.277149 13.122069 6.154102 13.315430 C6.031054 13.508790 5.934375 13.763670 5.864063 14.080078 Z M18.836719 6.486328 C20.102350 7.435552 20.524221 9.070301 20.102344 11.390625 C19.328903 15.328145 16.815256 17.296875 12.561328 17.296875 C12.526172 17.296875 12.447071 17.296875 12.324024 17.296875 C12.200976 17.296875 12.121875 17.296875 12.086719 17.296875 C12.051562 17.296875 11.981251 17.296875 11.875781 17.296875 C11.770312 17.296875 11.700000 17.305664 11.664844 17.323242 C11.629687 17.340820 11.576954 17.367187 11.506641 17.402344 C11.436328 17.437500 11.383594 17.481445 11.348438 17.534180 C11.313281 17.586914 11.269336 17.648437 11.216602 17.718750 C11.163867 17.789063 11.119922 17.876953 11.084766 17.982422 C11.049609 18.087891 11.032031 18.210937 11.032031 18.351562 C10.539841 21.410172 10.276172 23.009765 10.241016 23.150391 C10.135546 23.677737 9.836721 23.941406 9.344531 23.941406 L5.969531 23.941406 C5.793749 23.941406 5.653126 23.871094 5.547656 23.730469 C5.442187 23.589843 5.407031 23.431642 5.442188 23.255859 C5.582813 22.201167 6.057418 19.212915 6.866016 14.291016 C6.901172 13.974608 7.094530 13.816406 7.446094 13.816406 C7.481250 13.816406 7.780075 13.816406 8.342578 13.816406 C8.905081 13.816406 9.283007 13.816406 9.476367 13.816406 C9.669728 13.816406 10.047654 13.798828 10.610156 13.763672 C11.172659 13.728515 11.594530 13.675782 11.875781 13.605469 C12.157033 13.535156 12.561326 13.438477 13.088672 13.315430 C13.616018 13.192382 14.037889 13.034181 14.354297 12.840820 C14.670705 12.647460 15.048631 12.418947 15.488086 12.155273 C15.927541 11.891600 16.287889 11.575197 16.569141 11.206055 C16.850392 10.836912 17.140428 10.415041 17.439258 9.940430 C17.738088 9.465818 17.992968 8.929690 18.203906 8.332031 C18.414845 7.699216 18.573046 7.101565 18.678516 6.539062 C18.713672 6.433593 18.766406 6.416015 18.836719 6.486328 Z M20.207813 22.095703" style="fill:black"/>
</svg>