<svg viewBox="0 0 360 240" xmlns="http://www.w3.org/2000/svg"><linearGradient id="a" gradientUnits="userSpaceOnUse" x1="180" x2="180" y1="-.25" y2="240.25"><stop offset="0" stop-color="#e55325"/><stop offset="1" stop-color="#e55325" stop-opacity="0"/></linearGradient><path d="m0 0h360v240h-360z" fill="#ffe0b2"/><path d="m333.59 1.05a62.91 62.91 0 0 0 -8.4 3.41c2.56 1 3.9 1.41 6.73 2.31a43.76 43.76 0 0 0 -4.2 7.36 53.07 53.07 0 0 1 8.1-3.88 17.9 17.9 0 0 0 1.29 2.45 51 51 0 0 0 -13.51 7.74 19.22 19.22 0 0 1 -1.07-1.79 47.4 47.4 0 0 1 5.28-10c-3.64-.8-5.36-1.19-8.61-2.07-.08-.89-.1-1.34-.13-2.25a69.17 69.17 0 0 1 8.79-4.33h-84.86l5 1.88c.09 1.34.15 2 .3 3.34-3.33-1.3-5-2-8.35-3.3 2.58 3.08 3.91 4.66 6.69 7.87-2 1.21-3 1.77-5 2.88 3.47 1.5 5.2 2.26 8.64 3.73.33 1.34.51 2 .91 3.36-6-2.58-9-4-15.11-6.56-.2-.87-.29-1.31-.47-2.17 2.73-1.16 4.09-1.73 6.85-3-3.06-3.36-4.76-5.25-7.27-8h-25.92l-.18.1c3.39 1 5.1 1.59 8.54 2.82.15 1.21.23 1.82.41 3.06a115.12 115.12 0 0 0 -14.8-4.51c-.05-.61-.07-1-.1-1.47h-24.14c-1.91.28-3.91.68-6.51 1.25.07-.51.11-.87.16-1.25h-19.8l-5.53 6c3.41-1.27 5.11-1.89 8.49-3-.28 1.33-.43 2-.77 3.4-6 2.08-9 3.26-15 5.63.33-1 .49-1.5.78-2.48 4-4.05 5.84-6 9.18-9.47h-22.48c-.09.8-.18 1.45-.34 2.47-3.17 1-4.75 1.54-7.86 2.46 1.79 1.82 2.64 2.7 4.28 4.43-3 3.31-4.52 5-7.91 8.55 3.28-1.12 4.93-1.72 8.27-3-.56 1.57-.87 2.37-1.55 4-5.88 2.26-8.79 3.34-14.42 5.11.56-1.16.82-1.74 1.31-2.87 4.47-4.31 6.5-6.42 10.32-10.47-2.14-2.1-3.26-3.18-5.63-5.47.15-1 .22-1.51.33-2.51 4-1 6.54-1.7 10-2.73h-52.76c1.09.67 2.18 1.34 3.52 2a30.82 30.82 0 0 1 -.53 3.86c-2.24-1.21-2.49-2-5.51-3.68 1.7 3.68 1.55 5.6 2.07 9.33a26.34 26.34 0 0 1 -7.11 3.58c2.76 2 3.19 2.9 5.43 4.3a48.76 48.76 0 0 1 -2.7 4.31c-3.9-2.52-5.54-5-10.36-8 .76-1.07 1.12-1.6 1.77-2.65 4.65-1.54 7.26-2.13 10.36-3.61a21.92 21.92 0 0 0 -3.76-9.52h-22.68c-2.59 1.5-4.27 2.45-7.48 4.26a64.24 64.24 0 0 1 8.42 1.47 34.22 34.22 0 0 1 -2 3.57 63.49 63.49 0 0 0 -14.4-2.16c.53-.93.77-1.39 1.21-2.31l8.73-4.83h-29.54c-2.38 1.81-4 3.05-7 5.25 3.84-.51 5.76-.73 9.53-1.07a34.68 34.68 0 0 1 -1.39 3.37c-3.23.29-5.67.55-8.14.88v44.42c2.75-.2 5.11-.27 8.55-.26 0 1.7-.05 2.55 0 4.28-3.08 0-4.65.05-7.81.23 2.25 2.74 3.39 4.16 5.73 7-2.12 3-3.17 4.47-5.29 7.52 3.2-.14 4.79-.18 7.93-.18.12 1.76.18 2.65.31 4.42-3.8 0-6.31.06-9.38.21v14.66h2.2c.12 1.77.17 2.65.28 4.41l-2.52.01v6.85l.44.51-.44.49v6.68h3v4.3h-3v126.02h30.61c1.84-.47 4.07-.81 7.11-1.41-2.14-5.11-3.22-8.3-2.48-13.67 1-1.2 1.47-1.8 2.58-3a90.5 90.5 0 0 0 15.18 10.31 50.49 50.49 0 0 0 -3.42 4 100.33 100.33 0 0 1 -9.65-5.6 35 35 0 0 0 2.26 9.37h132.81c0-.12 0-.24 0-.39 6.28-.48 9.61-.55 15.64-.66v1.05h18.36c0-.32 0-.63-.07-1.06 6.26.07 9.43.14 15.79.23 0 .31.07.58.1.83h19l-.13-.76c6.38-.07 9.57-.14 15.89-.47.11.49.2.86.27 1.23h21.43l-2.72-1.15c-.18-.7-.28-1-.49-1.74a132.14 132.14 0 0 0 15-2.69 27.27 27.27 0 0 1 .86 2.6c-3.46.79-5.21 1.13-8.75 1.72l2.82 1.26h27a67.68 67.68 0 0 0 4.73-6.35c-3.45-1.11-5.26-1.61-9.08-2.63-.28-.73-.43-1.09-.75-1.8a77.2 77.2 0 0 0 13.1-6.44 26.4 26.4 0 0 1 1.31 2.87 77.53 77.53 0 0 1 -7.66 3.89c2.92.87 4.31 1.33 7 2.3a64.31 64.31 0 0 1 -5 7.63c3.26-1.25 4.86-1.93 8-3.4.11 1.31.14 2 .17 3.31l-1.4.62h34.58v-98.34l-4.26.14c.24-.8.36-1.2.59-2l3.67-2.32v-8.82l-.89-.76c.12-.8.17-1.2.27-2h.62v-48.31c-2.27.26-4.39.6-7.34 1.18.3-1.1.44-1.66.73-2.76 2.79-3 4.46-4.84 6.61-7.3v-5c-1.07-1.39-2-2.54-3.51-4.14.1-1.1.14-1.65.2-2.75 1.23-.39 2.31-.71 3.31-1v-31.39c-1.51-.9-3.17-1.79-5.33-2.89-.77-1.12-1.17-1.69-2-2.81a51.72 51.72 0 0 1 7.33-1.55v-9.49c-1.76.11-3.6.3-5.87.58-.32-.62-.47-.93-.74-1.57a60.92 60.92 0 0 1 6.61-5.56v-.22l-1.73-.92h-24.76c.02.32.04.65.08 1.05zm-3.59 70.06c.14-.92.2-1.38.29-2.29 5.42-1.63 8.18-2.68 12.67-5.55-.14 1.48-.24 2.21-.5 3.69a39.74 39.74 0 0 1 -7.13 3.41 32.14 32.14 0 0 1 3.78 3.79c-2.73 3.29-4.17 4.85-7.13 7.87a73 73 0 0 0 7.16-2.73c-.51 1.47-.78 2.21-1.33 3.69a98.93 98.93 0 0 1 -12.55 4.06c.37-.92.55-1.38.9-2.29a120.45 120.45 0 0 0 9.36-9.14 55.18 55.18 0 0 0 -5.52-4.51zm-4.38 25.94c-.59 1.39-.88 2.08-1.45 3.47-3 .65-4.48 1-7.58 1.65 1.21 1.78 1.81 2.67 3.13 4.55-3 2.68-4.57 4-7.67 6.61 3.26-.56 4.87-.82 8-1.24-.38 1.38-.55 2.06-.84 3.44-5.57.6-8.46 1.06-14.35 2.13.32-.87.49-1.3.83-2.18 4.15-3.19 6.17-4.78 10.17-8-1.84-2.12-2.68-3.12-4.41-5.18l1-2.25c5.43-1.16 8.08-1.77 13.13-3zm-20.62 41.88c-3.26 3-4.93 4.62-8.23 7.81 3.79-.75 5.66-1.12 9.35-1.8l-1 3.87c-6.28 1.26-9.52 1.95-16.08 3.33.22-1.09.34-1.63.57-2.71 4.26-3.94 6.44-5.9 10.69-9.68-2.83-2.51-4.29-3.78-7.17-6.25l.57-2.65c6.52-1.24 9.75-1.81 16-2.64-.24 1.53-.38 2.3-.68 3.84-3.7.52-5.58.83-9.37 1.49 2.22 2.15 3.35 3.24 5.35 5.39zm-15.76 36.43c-2.6 3.39-3.83 5.1-6.12 8.5 3.36-.94 5-1.45 8.28-2.5 0 1.61 0 2.41.07 4-5.47 1.87-8.3 2.72-14.07 4.22-.12-1.1-.18-1.65-.27-2.75 2.9-4.09 4.48-6.17 7.85-10.29-3.09-2.39-4.67-3.62-7.85-6.13.08-1.11.12-1.66.23-2.76 6.38-1.42 9.54-2.18 15.69-3.72-.27 1.6-.39 2.41-.62 4-3.5.93-5.28 1.39-8.88 2.27 2.31 2.12 3.45 3.16 5.7 5.16zm-8.95-67.83c.43-1 .64-1.52 1-2.53 5.84-.61 8.75-1 14.48-1.91-.61 1.4-.93 2.09-1.57 3.48-3.34.58-5 .85-8.4 1.35 1.32 2.06 1.94 3 3.22 4.87-3.54 2.76-5.34 4.15-9.06 7 3.49-.71 5.23-1.07 8.69-1.8-.67 1.34-1 2-1.68 3.31-6.08 1.31-9.15 2-15.26 3.24l1.35-2.36c4.85-3.47 7.18-5.19 11.74-8.58-1.73-2.26-2.61-3.45-4.5-6.07zm17.63-32.73c.08-1 .11-1.47.15-2.45a100.2 100.2 0 0 0 15.27-.35c-.11 1.37-.18 2.06-.39 3.43-3.43.35-5.18.45-8.72.55 2.23 2.3 3.25 3.39 5.13 5.47-3 2.56-4.53 3.84-7.67 6.43 3.43-.29 5.12-.48 8.46-1-.45 1.38-.7 2.07-1.2 3.44-5.68.86-8.61 1.18-14.52 1.59.3-1 .45-1.48.73-2.46 4.06-3.12 6.06-4.64 9.93-7.69-2.61-2.56-4.04-3.95-7.17-6.96zm16.41-29.28a40.89 40.89 0 0 1 -8 1c3.92 2 5.8 3 9.32 4.85a28 28 0 0 1 -3.67 6.1 57 57 0 0 0 8.46-1 28.62 28.62 0 0 1 .92 3.31 65 65 0 0 1 -14.85 1.19c-.18-.92-.28-1.37-.53-2.29a33.6 33.6 0 0 0 5.54-6.85c-4.5-2.38-6.91-3.66-11.92-6.43-.63-.87-1-1.3-1.67-2.16a39.75 39.75 0 0 0 13.52-.89 39.22 39.22 0 0 1 2.88 3.17zm-9.17-34.23c.1 1.52.17 2.27.36 3.74a31.82 31.82 0 0 1 -6.7 1.43 43.56 43.56 0 0 0 6 5.17c-1.25 2.91-1.82 4.29-2.85 6.92a27.35 27.35 0 0 0 6.69-1.87 31.83 31.83 0 0 0 1.6 3.2 28.75 28.75 0 0 1 -11.85 2.63c-.45-.91-.65-1.37-1-2.3 1.53-2.89 2.35-4.45 4.14-7.8a56.46 56.46 0 0 1 -7.87-6.88c-.13-1-.18-1.55-.26-2.6a36.54 36.54 0 0 0 11.74-1.64zm-17.44 47.91c-6.49-1.06-9.8-1.79-16.46-3.43-.19-1.1-.29-1.65-.52-2.73 3-2.29 4.39-3.36 6.91-5.42-4.56-3.91-6.93-6-11.68-10.19-.42-1-.64-1.5-1.09-2.49a159.42 159.42 0 0 0 15.58 5.06c.84 1.36 1.23 2.05 2 3.44-3.64-.91-5.48-1.44-9.21-2.61 3.74 3.27 5.59 4.86 9.14 7.92-1.79 1.81-2.8 2.74-4.94 4.68 3.85.92 5.76 1.33 9.53 2 .32 1.57.48 2.28.74 3.77zm-9.56-47.92c.14 1.54.22 2.3.43 3.81-3.09-.66-4.66-1.07-7.83-2 2.58 3.12 3.91 4.68 6.7 7.69-1.68 1.9-2.49 2.78-4 4.44 3.26 1 4.87 1.46 8 2.17.49 1.43.76 2.14 1.35 3.54a100.06 100.06 0 0 1 -14.13-4.17c-.34-.94-.5-1.41-.8-2.35 2.21-1.7 3.34-2.63 5.67-4.69-3.61-3.77-5.33-5.71-8.67-9.59-.11-1-.15-1.47-.24-2.45a116.82 116.82 0 0 0 13.52 3.6zm-16.09 77.26c3.76-3.23 5.63-4.8 9.33-7.81-3.11-3.83-4.79-5.87-8.37-10.14 0-1.2 0-1.8-.11-3 6.5 1.4 9.77 2 16.23 3 0 1.62 0 2.44-.07 4.07-3.72-.46-5.59-.74-9.32-1.36 2.63 3.33 3.86 4.92 6.16 8-2.88 2.53-4.34 3.83-7.3 6.5 3.55.31 5.33.43 8.89.59-.31 1.64-.48 2.45-.86 4.09-6-.12-9-.29-15-.85.16-1.28.25-1.89.42-3.09zm-16.28-61.14c.5 1.6.75 2.41 1.23 4.05-3.84-1.48-5.77-2.23-9.6-3.69 3.44 3.87 5.19 5.83 8.67 9.71-2.08 1.91-3.16 2.93-5.31 5.09 3.89 1.28 5.85 1.93 9.76 3.19.36 1.77.53 2.66.84 4.46-6.69-2-10-3.12-16.63-5.22-.25-1.29-.37-1.92-.62-3.19 2.85-2.6 4.3-3.82 7.12-6-4.45-4.81-6.71-7.25-11-12-.26-1.15-.38-1.72-.64-2.84 6.44 2.44 9.7 3.8 16.18 6.44zm-2 35.49c.2 1.94.29 2.92.43 4.87-3.66-.94-5.47-1.43-9-2.45 2.9 4.09 4.28 6.11 6.88 10-2.41 2.71-3.6 4.1-6 6.88 3.33.84 5 1.23 8.45 1.94-.09 2-.15 3-.33 4.9a134 134 0 0 1 -14.05-3.32c0-1.38 0-2.07 0-3.44 3-3.24 4.49-4.88 7.55-8.06-3.43-4.87-5.27-7.4-9.13-12.48-.19-1.37-.29-2.05-.5-3.42 6.1 1.91 9.26 2.84 15.65 4.58zm-23.58 40.45c.31-1.33.44-2 .69-3.33a71.51 71.51 0 0 0 12.63 3.64c-.45 1.95-.7 2.92-1.27 4.84a67 67 0 0 1 -7.39-1.82c1.15 3.88 1.63 5.76 2.41 9.33a97.68 97.68 0 0 1 -9 6.43 49.82 49.82 0 0 0 7.34 1.61c-1 1.79-1.59 2.67-2.79 4.41a45.18 45.18 0 0 1 -12.49-3.3c.86-1.17 1.26-1.76 2-3a81.28 81.28 0 0 0 11.3-7.06c-1.14-4.44-1.82-6.82-3.48-11.75zm-22.96-51.78c-.39-1.3-.59-1.94-1-3.23 6.23 1.81 8.34 2.64 14.06 4.48.47 2 .7 3.06 1.13 5.11-3.25-1.1-4.84-1.65-7.92-2.73 3.06 4.12 4.54 6.24 7.32 10.5-1.56 2.61-2.31 3.9-3.77 6.33 2.76 1.31 4.2 1.94 7.14 3.14.21 2.06.3 3.09.41 5.14-4.92-2.11-6.1-3.12-12.21-6-.17-1.3-.26-2-.48-3.25 2.7-2.38 3.23-3.83 5.17-6.78a96.19 96.19 0 0 0 -9.85-12.71zm13.35-37.06c.24 1.68.38 2.54.69 4.28-3.71-1.05-5.54-1.52-9.16-2.29 3 3.41 4.65 5.24 7.93 9a76 76 0 0 0 -4.75 6.1c3.6.92 5.43 1.43 9.14 2.52l1.09 4.89c-6.32-1.88-9.41-2.76-15.35-4.18-.35-1.28-.52-1.92-.86-3.18a71.49 71.49 0 0 1 6.16-7.3c-4.19-4.48-6.24-6.61-10-10.35-.15-1.1-.22-1.65-.32-2.72a88.93 88.93 0 0 1 15.43 3.23zm-33.12-3.16c.08 1.36.15 2.06.34 3.5a81.09 81.09 0 0 0 -9.12 1.36 81.34 81.34 0 0 1 7.66 5.05c-2 2.73-3 4.13-5 7a72.88 72.88 0 0 1 9.39-.46c.48 1.64.74 2.47 1.28 4.16a79.68 79.68 0 0 0 -16.4.92c-.33-1-.49-1.52-.8-2.51 2.7-3.51 4.06-5.24 6.87-8.61a67.79 67.79 0 0 0 -9.84-5c-.07-.83-.08-1.24-.09-2a93.84 93.84 0 0 1 15.71-3.41zm-.42 34.3c.58 1.68.87 2.53 1.43 4.24a83.06 83.06 0 0 0 -9.84.11 99.94 99.94 0 0 1 9.28 6.87c-1.93 2.7-2.94 4-5.05 6.73a75 75 0 0 1 9.77.67c.4 1.73.58 2.59.9 4.31a77.62 77.62 0 0 0 -16.83-.94c-.25-1-.38-1.58-.65-2.63 2.91-3.3 4.3-5 7-8.26a101.14 101.14 0 0 0 -12.07-7.39l-1-2.58a95.26 95.26 0 0 1 17.06-1.13zm-21.67 50.62c4.65-2.45 6.86-3.71 11.06-6.24a41.62 41.62 0 0 0 -8-7.14c0-.95 0-1.43-.05-2.4a83.87 83.87 0 0 1 16.65.34 32.62 32.62 0 0 1 -.23 3.85 73.9 73.9 0 0 0 -9.42-.67 37 37 0 0 1 5.6 6.5c-3.29 2-5 3-8.65 5a58.42 58.42 0 0 1 8.78 1.28 24.64 24.64 0 0 1 -2.16 3.34 56.84 56.84 0 0 0 -14.78-1.81 20.42 20.42 0 0 0 1.2-2.05zm-29.12-68.87c6.5-2.56 9.79-3.9 16.32-6.34a17.75 17.75 0 0 0 0 2.64c-3.85 1.35-5.78 2.06-9.63 3.49 2.75.7 4.24 1.13 7.4 2.2-2.42 2.87-3.58 4.32-5.85 7.24 4-1.23 6-1.83 10-2.94.37 1.29.58 2 1 3.29-6.89 1.78-10.36 2.83-17.28 4.92-.26-.82-.38-1.23-.61-2 3.06-3.57 4.62-5.35 7.88-8.87a86.74 86.74 0 0 0 -9.38-2 13.37 13.37 0 0 1 .15-1.63zm12.94 23.4 1.36 3.48c-4.13.92-6.2 1.42-10.34 2.45 3.83 1.53 5.77 2.34 9.6 4.09-2.07 3-3.13 4.46-5.29 7.4 4.15-.87 6.23-1.29 10.36-2 .46 1.44.68 2.16 1.09 3.59-7.07 1.16-10.64 1.91-17.76 3.47-.29-.91-.44-1.37-.76-2.28 2.94-3.59 4.38-5.4 7.21-9-4.92-1.9-7.42-2.77-12.29-4.41-.35-.88-.52-1.32-.86-2.19 7.06-1.96 10.62-2.93 17.68-4.6zm-18.67 50.11c4.13-3.09 6.12-4.66 10-7.84-3.47-1.77-5.42-2.63-9.55-4.36-.12-.87-.2-1.3-.36-2.17 7-1.54 10.49-2.3 17.44-3.53.17 1.34.23 2 .29 3.32-4 .67-6 1.06-10 1.89a77.88 77.88 0 0 1 7 4c-3 2.57-4.54 3.84-7.76 6.33 3.8-.77 5.69-1.12 9.45-1.7a19.26 19.26 0 0 1 -1.2 2.9c-6.29 1-9.48 1.63-15.88 3.1.25-.84.37-1.18.57-1.94zm-16.75-59.23c-2.63 2.52-3.88 3.78-6.32 6.31 3.83-1 5.76-1.56 9.66-2.74.22 1.11.36 1.67.66 2.82-6.79 1.94-10.14 2.94-16.68 4.36-.14-.76-.21-1.14-.31-1.87 3.19-3 4.84-4.49 8.31-7.49-3.52-1-5.11-1.45-7.79-2.39a11.59 11.59 0 0 1 .58-1.41 139.85 139.85 0 0 0 15.33-4.66 11.87 11.87 0 0 0 -.53 2.19c-3.72 1.25-5.56 1.85-9.18 2.89 2.24.75 3.48 1.14 6.27 1.99zm-20.39 54.75c-.2-.89-.31-1.34-.54-2.24 6.74-1 10.16-1.65 17.07-3.1.3 1.3.44 2 .67 3.23-4 .85-6 1.26-9.92 2 3.25 1.65 4.83 2.43 7.78 3.89-2.62 2.69-3.95 4-6.7 6.65 3.79-.85 5.7-1.31 9.51-2.23a21.3 21.3 0 0 1 -.39 2.9c-6.42 1.63-9.63 2.45-16 3.84.06-.81.07-1.22.08-2 3.53-3.18 5.25-4.79 8.63-8.07-3.86-1.8-5.94-2.75-10.19-4.87zm6.3-14.89c-.3-.89-.45-1.34-.76-2.23 2.82-3.29 4.22-5 7-8.33-4.71-1.84-7-2.77-11.48-4.75-.27-.85-.4-1.28-.65-2.12 6.63-1 10-1.77 16.93-3.42.44 1.26.67 1.89 1.15 3.16-4 1-6.06 1.4-10 2.17 3.56 1.58 5.4 2.35 9.11 3.89-2.08 2.82-3.12 4.22-5.21 7 4-.8 6.09-1.24 10.19-2.16.48 1.32.71 2 1.16 3.3-7.05 1.56-10.56 2.32-17.44 3.49zm-8.46-56.37a98.83 98.83 0 0 0 10.13-8.43c-1.46-3.29-2.29-5-4.18-8.47.18-1.08.25-1.62.37-2.69a47.59 47.59 0 0 0 11.73-.09c-.19 1.57-.31 2.37-.61 4a50.4 50.4 0 0 1 -7 .39c1.4 2.72 2 4.06 3.13 6.67-2.94 3-4.51 4.49-7.94 7.46a47.36 47.36 0 0 0 7.2-.53c-.81 1.75-1.26 2.63-2.25 4.44a40.66 40.66 0 0 1 -12.35.3c.77-1.21 1.12-1.85 1.77-3.05zm-23.36 27.18c3.16-1.78 4.81-2.69 8.3-4.55a20 20 0 0 1 -4.93-6.27 18.62 18.62 0 0 1 1.1-1.58 33 33 0 0 0 12.65 1.74 12.3 12.3 0 0 0 -1.19 2.2 39.79 39.79 0 0 1 -7.79-.44 20.5 20.5 0 0 0 4.19 4.56c-2.69 1.71-4 2.56-6.45 4.27a54 54 0 0 0 8.46.14 27.17 27.17 0 0 0 .12 2.82 51.12 51.12 0 0 1 -14.58-.81c.03-.87.05-1.27.12-2.08zm6.92 13.12c.27 1.32.42 2 .74 3.32a57.8 57.8 0 0 1 -8.91-.72 76.65 76.65 0 0 0 7.72 6.35l-4.95 5.59a73.22 73.22 0 0 0 9.29.27c.42 1.4.62 2.1 1 3.5a69.8 69.8 0 0 1 -15.87-.86c-.25-1-.37-1.52-.61-2.53 2.59-2.43 3.9-3.67 6.57-6.2a68 68 0 0 1 -9.5-8.51c-.14-1-.2-1.44-.3-2.38a49.86 49.86 0 0 0 14.82 2.17zm-20 63.7c-.14-1-.2-1.46-.3-2.42 5.7.21 8.48.57 14.06.43.07 1.59.12 2.4.27 4-3.16 0-4.65-.23-7.94-.46 2.69 2.7 4 4.19 6.57 7.16-1.71 2.5-2.44 3.59-4.15 5.86 3.24.54 4.57 1 7.53 1.37.31 1.7.48 2.55.83 4.26-5-.88-7.67-1.78-13.28-2.7-.26-1-.38-1.55-.63-2.57 2.32-2.61 3.48-4 5.94-6.73-3.7-3.52-5.46-5.15-8.95-8.2zm6.48-14.28c-.08-1-.13-1.52-.23-2.54 2.7-2.85 4.28-4.19 7.14-7a74 74 0 0 1 -9.7-8.59c-.21-1.07-.33-1.61-.55-2.68a70.42 70.42 0 0 0 15.43 1.62c.35 1.46.52 2.18.84 3.63a73 73 0 0 1 -9.21-.42c3.1 2.79 4.66 4.07 7.67 6.43-2.2 2.45-3.31 3.66-5.56 6.07a82.38 82.38 0 0 0 9-.32c.12 1.37.17 2 .21 3.39a84.59 84.59 0 0 1 -15.09.41zm-19.11-74.88a30.51 30.51 0 0 1 8-3.93c-1.17-4.07-1.76-6.07-2.72-9.83.52-.86.8-1.28 1.38-2.11a35.45 35.45 0 0 1 10.76 7.87 24.31 24.31 0 0 0 -2.07 2.74 35.26 35.26 0 0 0 -6-4.76c.55 3.23.89 4.9 1.69 8.31a24.28 24.28 0 0 0 -6.13 2.71 35.88 35.88 0 0 1 6.05 4c-.31 1.31-.44 2-.65 3.35a37.35 37.35 0 0 0 -10.77-5.75c.17-1.06.29-1.6.46-2.6zm3.36 17c0 1.58.08 2.37.18 4a52.27 52.27 0 0 0 -6.84-2c2.11 3.24 3.2 4.88 5.47 8.19-1.68 2.22-2.54 3.42-4.28 5.92 2.92.51 4.36.81 7.19 1.55.24 1.66.37 2.5.64 4.16a88.42 88.42 0 0 0 -12.69-2.13c-.13-1.17-.19-1.76-.31-2.93 2.44-3.16 3.63-4.68 6-7.45-3-4-4.38-5.91-7.12-9.7 0-1.13 0-1.69 0-2.81a51 51 0 0 1 11.76 3.2zm-16.53 36.71c-.11-1.19-.16-1.79-.27-3 5.5.19 8.22.36 13.57.91.22 1.72.34 2.59.55 4.31-3.16-.28-4.75-.39-7.95-.56 2.57 3 3.85 4.58 6.41 7.57-2 2.73-3.12 4.12-5.36 6.92 3.3.08 5 .13 8.23.26.1 1.67.13 2.5.17 4.14-5.69-.14-8.55-.18-14.29-.24 0-1.14 0-1.71 0-2.87 3-3.39 4.49-5.09 7.24-8.41-3.3-3.57-4.95-5.4-8.3-9.03zm-14.76-54.71c.16-1.09.24-1.63.44-2.7a91.6 91.6 0 0 1 9.15-7.81c-1.94-3.17-2.83-4.67-4.68-7.49.42-1 .64-1.46 1.11-2.41a63.44 63.44 0 0 1 13.74.86 38.09 38.09 0 0 0 -1.81 3.47 59.65 59.65 0 0 0 -7.79-.71c1.22 2.51 1.85 3.82 3.2 6.53a76.81 76.81 0 0 0 -7.11 6.15 66.71 66.71 0 0 1 7.56.47c-.33 1.56-.48 2.35-.73 3.94a75.85 75.85 0 0 0 -13.08-.3zm-1.87 156c4.19-2.23 6.22-3.3 10.12-5.41-2.79-2.09-4.34-3.16-7.6-5.32.06-.77.09-1.16.12-2a143 143 0 0 1 15.65.1c-.07 1.15-.12 1.72-.27 2.83-3.56-.19-5.36-.23-9-.2 2.37 1.86 3.49 2.78 5.52 4.59-3 1.67-4.57 2.51-7.8 4.22 3.53-.11 5.28-.11 8.71 0a18.47 18.47 0 0 1 -1.34 2.31 102.48 102.48 0 0 0 -14.88.42c.33-.54.49-.88.77-1.54zm19.44 23.87a43.07 43.07 0 0 0 -6.62-2.17 53.45 53.45 0 0 0 .75 9 59 59 0 0 0 -6.84 5.86 45.24 45.24 0 0 1 6.31 2 30.61 30.61 0 0 0 -.68 4.11 50.61 50.61 0 0 0 -11-2.82c.12-1.12.2-1.69.4-2.82a68.37 68.37 0 0 1 8.62-7.31 60.49 60.49 0 0 1 -1.6-10.56c.78-1.27 1.2-1.91 2.09-3.21a45.11 45.11 0 0 1 11.92 3.25 55.15 55.15 0 0 0 -3.35 4.67zm-7.81-46.64c-.1-.85-.15-1.27-.27-2.13 3-2.48 4.48-3.71 7.25-6.16-3.86-2.82-5.83-4.2-9.76-6.92-.21-.89-.31-1.34-.53-2.24 6.1.08 9.12.19 15.07.64.35 1.36.52 2.05.86 3.41-3.48-.29-5.24-.4-8.78-.54 3.05 2.34 4.56 3.53 7.53 6-2 2-3.1 3-5.32 5 3.59.18 5.36.32 8.87.69.21 1.3.3 1.94.45 3.21a138.17 138.17 0 0 0 -15.37-.96zm2.81-28.39c-.23-.91-.34-1.37-.57-2.27 2.52-2.62 3.77-3.92 6.31-6.52-3.75-2.8-5.58-4.14-9.15-6.75-.14-.86-.2-1.29-.33-2.15 5.78 0 8.66.06 14.41.15.18 1.32.28 2 .52 3.33-3.35-.1-5-.13-8.38-.19 2.78 2.23 4.2 3.38 7.1 5.77-1.88 2.18-2.79 3.27-4.64 5.45 3.4.14 5.09.23 8.45.47.35 1.4.53 2.1.9 3.51-5.82-.47-8.75-.64-14.66-.8zm35.08 48.29a60.39 60.39 0 0 0 -7.93-2.95 41.36 41.36 0 0 1 4.17 6.72c-3 .85-4.5 1.26-7.76 2.06a48 48 0 0 1 7.47 3.26 19 19 0 0 1 -2 2.35 45.88 45.88 0 0 0 -12.75-5c.49-.59.72-.89 1.15-1.5 4.22-1.07 6.23-1.59 10-2.65a47 47 0 0 0 -6.07-7.7c.11-.77.16-1.15.23-1.94a67.14 67.14 0 0 1 14 4.36 29.67 29.67 0 0 1 -.55 2.99zm-5.08-15.69c-.09-.9-.15-1.35-.27-2.27 2.74-1.92 4-2.9 6.48-4.94a130.07 130.07 0 0 0 -9.33-9.23c-.24-1-.36-1.47-.61-2.45a108.5 108.5 0 0 1 14 3.31c.37 1.59.54 2.39.88 4-3.18-1-4.8-1.5-8.08-2.31 2.91 3.07 4.34 4.67 7.07 8-1.81 1.75-2.75 2.58-4.74 4.21a73 73 0 0 1 8 3c.17 1.5.24 2.24.35 3.7a73.89 73.89 0 0 0 -13.79-5.02zm34 32.32a61.16 61.16 0 0 1 -7.8-3.7c1.79 3.67 2.64 5.47 4.2 9a27.75 27.75 0 0 1 -8.2 2.33 71.15 71.15 0 0 0 8.29 4.69 27.28 27.28 0 0 1 -1.84 3.29 79.43 79.43 0 0 1 -14.55-9.37 21 21 0 0 0 1.47-1.83 30.28 30.28 0 0 0 10.84-1.17c-2.08-4.45-3.21-6.75-5.6-11.43.18-.94.25-1.41.37-2.38a59.36 59.36 0 0 0 13.2 6.59c-.1 1.59-.19 2.4-.38 3.98zm-5.16-19.76c-.1-1.15-.16-1.72-.29-2.89a40.93 40.93 0 0 0 5.48-7.37c-3.3-4.17-5-6.25-8.35-10.41-.23-1.22-.35-1.83-.58-3a56.89 56.89 0 0 0 12.42.89c.33 2 .5 3 .84 5a60.38 60.38 0 0 1 -7.23-.47c2.62 3.39 3.92 5.1 6.5 8.52a60.78 60.78 0 0 1 -4 7 54.7 54.7 0 0 0 7.3 1.27c.25 1.91.37 2.86.57 4.74a53.36 53.36 0 0 1 -12.66-3.28zm10.95-53.4c-2.23 3.78-3.23 5.64-5.09 9.22 3-.41 4.57-.67 7.63-1.25.12 2 .21 3.07.4 5.12a93 93 0 0 1 -12.87 1.5c-.17-1.29-.26-1.94-.42-3.22 2.34-4 3.59-6.17 6.43-10.61-3-3.35-4.52-5-7.47-8.07.05-1.21.08-1.82.16-3 5.76-1.07 8.67-1.78 14.51-3.27-.31 1.92-.43 2.88-.61 4.84-3.3.8-4.94 1.18-8.22 1.85 2.17 2.64 3.29 4.02 5.55 6.88zm23.25 78.58c-3.06 0-4.6-.09-7.68-.37 2.06 3.27 3 4.88 4.91 8a43.17 43.17 0 0 1 -7.19 6.5 75 75 0 0 0 8.11 1 38.55 38.55 0 0 1 -1.28 4.16 73.34 73.34 0 0 1 -14.2-2.47c.46-1 .67-1.51 1.07-2.54a40.7 40.7 0 0 0 9.57-6.94c-2.43-3.83-3.73-5.8-6.45-9.83.05-1.21.06-1.82.07-3.05a75.25 75.25 0 0 0 13 .74c.09 1.92.1 2.88.07 4.79zm-6.58-21.26c-.17-1.37-.26-2.06-.44-3.45 2.16-4.26 3.17-6.54 5.2-11.24-3.34-3.95-5-5.92-8.35-9.82-.21-1.43-.32-2.15-.52-3.58 5-.76 7.48-1.26 12.42-2.24.28 2.22.43 3.33.74 5.54-2.87.54-4.31.8-7.19 1.27l6.47 8.29c-1.49 4-2.23 5.93-3.79 9.67 2.9-.29 4.34-.48 7.23-.88.31 2.16.47 3.24.76 5.37a116.77 116.77 0 0 1 -12.53 1.06zm16.87-73.83c-3.24.69-4.88 1.08-8.15 1.89 1.6 2.9 2.44 4.41 4.22 7.5a114.72 114.72 0 0 0 -6 10.34c3-.72 4.54-1.07 7.54-1.72-.08 2.21-.09 3.31-.07 5.53-5.07 1.09-7.63 1.72-12.77 2.9-.07-1.46-.09-2.19-.12-3.64a129.58 129.58 0 0 1 7.59-12.5c-2.46-3.58-3.64-5.31-5.91-8.59.28-1.37.44-2.05.78-3.41 5.82-1.54 8.73-2.29 14.46-3.5-.71 2.05-1.05 3.11-1.57 5.19zm16.3 101.24a68.19 68.19 0 0 1 -6.24 8.53c3.2-.3 4.8-.49 8-.88-.22 1.84-.36 2.75-.72 4.53-5.59.66-8.39 1-14 1.23.31-1.16.45-1.76.7-2.95a66.66 66.66 0 0 0 8.42-10c-2.77-3.54-4.23-5.38-7.22-9.11-.06-1.36-.1-2-.2-3.42 5.14-.6 7.7-1 12.79-1.72.21 2.08.31 3.11.45 5.15-3 .42-4.52.63-7.54 1 2.29 3.13 3.41 4.66 5.56 7.63zm-5.94-30.68c-.23-1.47-.34-2.21-.58-3.69 2-4.86 2.88-7.32 4.76-12.19-3.3-4.12-4.92-6.17-8.11-10.23-.18-1.52-.27-2.28-.44-3.8a110.78 110.78 0 0 1 12-1.64c.23 2.24.36 3.37.65 5.61-2.74.26-4.12.44-6.9.86 2.47 3.48 3.73 5.23 6.29 8.74-1.36 4-2 6-3.42 10 2.82-.43 4.22-.63 7-1 .39 2.21.59 3.31 1 5.5-4.9.64-7.34 1.05-12.25 1.83zm14.09-64.41a67.59 67.59 0 0 0 -6.65 9 53.52 53.52 0 0 1 7.06.08c-.27 2.15-.37 3.23-.5 5.4a60.44 60.44 0 0 0 -12 .43c0-1.49.08-2.24.18-3.72a75.81 75.81 0 0 1 8.32-11.3c-1.76-4.26-2.55-6.32-3.95-10.26.51-1.39.79-2.08 1.4-3.46a57 57 0 0 1 13.54.34 46.85 46.85 0 0 0 -2.39 5 51.59 51.59 0 0 0 -7.59-.42c.87 3.47 1.39 5.26 2.58 8.9zm23.46 103.25c-5.6.59-8.39 1-14 1.77.14-1.18.2-1.78.29-3a84.61 84.61 0 0 0 7.19-10.16c-3.19-3.51-4.82-5.34-8.12-9.09-.18-1.36-.28-2-.5-3.42a109.53 109.53 0 0 1 12.45-.79c.41 2 .6 3 1 4.89-2.94.09-4.42.19-7.37.44 2.59 3.14 3.87 4.67 6.38 7.63a79.87 79.87 0 0 1 -5.19 8.27c3.18-.39 4.77-.57 7.94-.86.03 1.75.02 2.61-.07 4.31zm-11.23-41.59c-.31-1.42-.47-2.13-.77-3.57 1.62-4.21 2.38-6.25 4-10-3.26-4.6-4.83-6.91-7.83-11.49-.18-1.45-.27-2.18-.42-3.63a36.94 36.94 0 0 1 11 2.69c.23 2 .37 3 .7 5.08a36.66 36.66 0 0 0 -6.36-1.7c2.35 3.88 3.58 5.83 6.13 9.71-1.11 3-1.64 4.6-2.74 7.91a45.85 45.85 0 0 1 6.59 1c.52 2 .78 3 1.32 5a54 54 0 0 0 -11.62-1.01zm12.38-63.24a98.61 98.61 0 0 0 .9 10.9 27.43 27.43 0 0 0 -6.73 4.9 35.37 35.37 0 0 1 6.18 4.15 40.81 40.81 0 0 0 -.77 4.64 33.94 33.94 0 0 0 -10.68-5.89c.12-1.37.2-2.06.4-3.41a31.68 31.68 0 0 1 8.46-6.65 110.4 110.4 0 0 1 -1.8-12.91c.72-1.26 1.11-1.88 2-3.12a40.1 40.1 0 0 1 11.75 8.25 39.6 39.6 0 0 0 -3.11 4.21 40.34 40.34 0 0 0 -6.6-5.08zm6.71 44a69.08 69.08 0 0 0 13.56 4.46c.23 1.69.38 2.54.71 4.24a78.46 78.46 0 0 1 -8-2.17 113.43 113.43 0 0 0 7.35 8.78 63.68 63.68 0 0 0 -3.4 5.92c3.08.76 4.65 1.08 7.86 1.65.55 1.68.84 2.53 1.43 4.2a106.47 106.47 0 0 1 -13.22-2.83c-.41-1.2-.61-1.81-1-3a62.18 62.18 0 0 1 4.4-6.88 107.1 107.1 0 0 1 -9.19-11.29c-.23-1.25-.33-1.86-.5-3.08zm8.78 59.83c-.05-1-.1-1.57-.21-2.63a67.82 67.82 0 0 0 5.69-7.49c-3.76-3.49-5.64-5.43-9.35-9.41-.35-1.2-.53-1.8-.9-3 4.85.89 7.37 1.5 12.64 2.28.61 1.66.91 2.48 1.49 4.1-3.09-.39-4.61-.6-7.58-1 3 3.15 4.54 4.64 7.56 7.47a60.5 60.5 0 0 1 -4 6.08c3.18.16 4.79.26 8.07.45.36 1.47.52 2.19.78 3.6-5.79-.3-8.57-.47-14.19-.45zm18.39-84a52 52 0 0 1 -8-2.33 30.76 30.76 0 0 0 2.63 8.09c-3.34 2-4.91 3-7.79 5a68.21 68.21 0 0 0 8.43 2 38.16 38.16 0 0 0 -.58 4 67 67 0 0 1 -14.3-3.89c.13-1.13.21-1.69.41-2.81 3.53-2.17 5.48-3.24 9.73-5.44a31.2 31.2 0 0 1 -3.13-10.56c.71-1 1.1-1.53 1.92-2.53a45.42 45.42 0 0 0 13.05 4.8 33.64 33.64 0 0 0 -2.37 3.72zm-3.57-50.61c1.82 4.39 2.83 7 3.18 11.32-2.79 1.58-4.95 1.85-8.9 2.86 3.09 2.34 4.42 3.85 6.68 5.84a37.79 37.79 0 0 1 -3.05 4.16c-3.92-3.56-6.69-6.65-12-10 .81-1 1.19-1.49 1.89-2.5 5-1.25 7.4-1.89 11.79-3.18a49.15 49.15 0 0 0 -5.54-13c.16-1.16.23-1.74.32-2.91 6.11 2.49 9.51 4.94 13.64 7.73a44.49 44.49 0 0 1 -.83 4.75 70.26 70.26 0 0 0 -7.18-5.02zm7.49 81.92a130.31 130.31 0 0 0 15.63.37c.14 1.62.23 2.42.44 4-3.66.09-5.48.09-9.08 0 3 2.78 4.53 4.15 7.65 6.82-2 2.73-2.87 4.07-4.54 6.71 3.47.08 5.22.08 8.74 0 .44 1.61.67 2.41 1.16 4-6 .14-9 .1-14.77-.21-.36-1.08-.54-1.62-.89-2.71 2.14-3.05 3.3-4.61 5.88-7.8-4.05-3.28-6-5-9.84-8.47-.18-1.08-.26-1.62-.38-2.71zm9.41 53.88c-.31-.92-.47-1.38-.81-2.31a68.73 68.73 0 0 0 5.06-6.79c-4.39-3.05-6.55-4.62-10.85-7.93-.43-1-.64-1.56-1.06-2.61 5.6.43 8.47.58 14.24.68.63 1.54 1 2.31 1.59 3.82-3.36-.06-5-.12-8.35-.28 3.42 2.66 5.14 4 8.62 6.46-1.34 2.39-2 3.54-3.51 5.78 3.44.14 5.17.2 8.64.29.63 1.4.94 2.1 1.56 3.46-6.1-.16-9.14-.25-15.14-.57zm20.21-84c-3.78.37-5.65.5-9.34.65a48.27 48.27 0 0 0 4.42 5.91c-3.45 2.76-5.12 4.12-8.26 6.8 3.79-.11 5.71-.22 9.57-.53-.26 1.56-.37 2.35-.55 3.94a145.17 145.17 0 0 1 -16.31.55c.11-1.06.18-1.59.34-2.64 3.94-3.07 6.06-4.63 10.49-7.84a42.1 42.1 0 0 1 -5.64-7.31c.5-1 .77-1.46 1.34-2.43a110.88 110.88 0 0 0 15.58-.81c-.72 1.5-1.05 2.24-1.65 3.74zm4.26-18.36c5.08-3.45 7.48-5.22 12.13-8.73-1.54-3.22-2.36-5-4.23-8.74.4-1.22.58-1.83.93-3.06a133.27 133.27 0 0 0 14.32.3c-.57 1.68-.87 2.52-1.52 4.18-3.36.16-5 .2-8.33.19 1.29 2.93 1.87 4.3 3 6.87-3.68 2.93-5.56 4.4-9.51 7.31 3.35-.24 5-.41 8.46-.84-.89 1.57-1.36 2.35-2.32 3.88a126.36 126.36 0 0 1 -14.65 1.43c.68-1.11 1.03-1.63 1.71-2.76zm17.26 49.22c-3.74.64-5.62.94-9.37 1.46 2.81 2.36 4.23 3.54 7.07 5.86-2.34 3.17-3.43 4.74-5.47 7.82 3.57-.49 5.35-.77 8.88-1.39.25 1.64.38 2.46.69 4.09-6 1.06-9 1.49-15.05 2.14-.26-1.09-.39-1.63-.63-2.72 2.59-3.61 4-5.46 7.05-9.24-3.77-2.78-5.66-4.19-9.37-7.05-.06-1.09-.09-1.64-.12-2.73 6.52-.75 9.81-1.24 16.33-2.35-.04 1.67-.04 2.49-.02 4.14zm-8.55 53.8c-.52-1-.77-1.44-1.28-2.4 1.74-3 2.56-4.54 4.28-7.82-4.59-2.8-6.83-4.22-11.26-7.14-.42-1-.63-1.56-1-2.61 5.85-.33 8.78-.59 14.59-1.33.57 1.59.87 2.38 1.5 4-3.36.41-5.05.58-8.44.85 3.48 2.4 5.24 3.58 8.85 5.91-1.19 2.8-1.75 4.15-2.89 6.74 3.44-.18 5.16-.31 8.56-.63.83 1.5 1.26 2.24 2.14 3.72-5.99.48-9 .61-15.06.74zm19.7-73.21c-6.74 1.29-10.14 1.91-16.9 3 .15-1.09.23-1.63.4-2.7 4.2-3.78 6.39-5.7 10.84-9.56-2.95-2.5-4.38-3.74-7-6.16.35-1 .53-1.55.91-2.57 6.6-1.21 9.93-1.91 16.57-3.29-.45 1.56-.67 2.34-1.09 3.92-3.92.78-5.88 1.18-9.79 1.92 2 2.07 3.08 3.13 5.28 5.26-3.43 3.21-5.13 4.81-8.43 8 4-.69 5.94-1.06 9.89-1.82-.29 1.59-.43 2.4-.69 4.03zm12.57 70.08c-.67-1-1-1.56-1.62-2.6 1.17-3.72 1.79-5.68 3.23-9.68-4.42-2.36-6.53-3.6-10.7-6.13-.38-1.09-.56-1.63-.9-2.71a126.5 126.5 0 0 0 13.73-3.75c.44 1.61.69 2.42 1.24 4-3.07 1-4.64 1.49-7.82 2.34 3.22 2.09 4.87 3.11 8.31 5.08-.95 3.36-1.34 5-2.06 8.22 3.18-.83 4.75-1.29 7.83-2.33 1 1.58 1.46 2.37 2.55 3.93a95.21 95.21 0 0 1 -13.8 3.66zm29-10.26c-.8-1-1.17-1.55-1.89-2.59a89.45 89.45 0 0 1 1.83-11.48 65.07 65.07 0 0 1 -9.23-4c-.3-1-.43-1.57-.67-2.61 4.9-2.36 5.74-3.23 11.9-6.66a31.8 31.8 0 0 0 .88 3.59c-3.56 2.1-4.08 2.7-6.78 4.27a53.06 53.06 0 0 0 7.1 3.23 71.94 71.94 0 0 0 -1 9.45c2.67-1.76 3.26-2.41 6.66-4.87a42.65 42.65 0 0 0 2.83 3.63c-5.73 4.4-6.84 5.34-11.68 8.09zm13.66-57.35c-3.57.9-5.35 1.41-8.91 2.6 1.83 1.53 2.78 2.28 4.8 3.75a97.07 97.07 0 0 0 -7.55 8.16 89.27 89.27 0 0 1 9-3.37c-.21 1.34-.29 2-.41 3.34a132.76 132.76 0 0 0 -14.39 6.12c.05-1 .09-1.51.18-2.51a71.09 71.09 0 0 1 8.66-10.25 29.69 29.69 0 0 1 -5.86-4.65c.26-1 .39-1.5.67-2.5 5.71-1.54 8.71-2.61 14.8-4-.44 1.34-.65 2-1.04 3.34zm-1.31-13.24c.31-.94.46-1.41.76-2.34 4.09-3.36 6.09-4.91 9.95-7.84-2.49-2.33-3.75-3.53-6.44-6.11.15-.94.22-1.41.33-2.35 5.78-.27 8.67-.38 14.45-.54-.16 1.27-.26 1.9-.49 3.17-3.37.15-5.06.23-8.43.45 2 2.07 2.94 3.07 4.8 5-3 2.33-4.51 3.54-7.65 6.11 3.43-.48 5.15-.68 8.59-1-.39 1.26-.59 1.89-1 3.16-6.01.71-8.99 1.15-14.92 2.32zm8.41 37.64c-.22-.86-.31-1.29-.47-2.14a80.49 80.49 0 0 1 15.64-3.21 26.49 26.49 0 0 0 .65 3 79.35 79.35 0 0 0 -9.06 1.62c3.15 1.48 4.81 2.24 8.26 3.83a28.17 28.17 0 0 0 -3.36 6.55 62 62 0 0 1 8.67-1.9 35.39 35.39 0 0 0 2.15 3 56.64 56.64 0 0 0 -14.56 4.25c-.72-.86-1.06-1.29-1.7-2.16a30.55 30.55 0 0 1 4.38-8.77c-4.46-1.75-6.58-2.54-10.6-4.07zm10.92 48.58c0-1-.06-1.54-.13-2.55 2.64-4.27 3.88-6.36 6.21-10.37a32.51 32.51 0 0 0 -9.27-3.86c-.35-.9-.54-1.34-1-2.21a53.28 53.28 0 0 1 13.65-5.69c.54 1.43.79 2.16 1.22 3.64a53.88 53.88 0 0 0 -7.87 2.7 37.14 37.14 0 0 1 7.09 4.21c-1.75 3.18-2.68 4.83-4.65 8.17a58.05 58.05 0 0 1 7.73-2.19c.12 1.6.17 2.41.22 4a58.78 58.78 0 0 0 -13.2 4.17zm16.46-80.2c-.33 1.18-.49 1.77-.8 3-3.6.08-5.4.16-9 .42 2 1.81 3 2.73 5.2 4.6-3 2.09-4.5 3.16-7.39 5.4 3.66-.34 5.49-.44 9.16-.55-.16 1.19-.23 1.78-.32 3a107.21 107.21 0 0 0 -15.77 1.41c.07-.82.11-1.23.22-2 3.73-2.94 5.67-4.3 9.59-6.92-2.87-2.15-4.23-3.19-6.85-5.25.24-.82.37-1.23.62-2 6.11-.82 9.17-.98 15.34-1.11zm-4.69-59.66c-.43 1.67-.64 2.51-1 4.19-3.19.24-4.77.39-7.94.77 1.51 2.45 2.32 3.73 4.07 6.36-2.88 2.92-4.3 4.37-7.05 7.2 3.29-.16 4.95-.23 8.26-.34-.22 1.67-.3 2.51-.43 4.18-5.73.12-8.59.2-14.29.43.11-1.06.18-1.58.34-2.64 3.55-3.31 5.4-5 9.14-8.55-2.31-3-3.36-4.49-5.3-7.16.33-1.06.5-1.59.84-2.64a127.26 127.26 0 0 1 13.34-1.8zm-13.6-62.09a44.93 44.93 0 0 0 -6.88 5.37 42.5 42.5 0 0 1 9.17 2.47 77.5 77.5 0 0 1 -1.78 9.86 44.09 44.09 0 0 1 6.56-4.63 33.59 33.59 0 0 1 1.07 3.92c-4.57 2.6-6.42 5-11.46 7.7-.23-1-.36-1.42-.67-2.36 1.8-4.31 2.26-7 3-12-4.19-1-6.56-1-11.66-2-.89-.94-1.36-1.41-2.37-2.34 4.39-3.45 6.76-6.57 11.7-9.91a47.86 47.86 0 0 1 3.3 3.92z" style="fill:none;stroke-linecap:round;stroke-linejoin:round;stroke-width:.5;opacity:.65;stroke:url(#a)"/></svg>